<svg width="31" height="31" viewBox="0 0 31 31" fill="none" xmlns="http://www.w3.org/2000/svg">
<rect x="0.373047" width="30.6274" height="30.6274" rx="15.3137" fill="white" fill-opacity="0.5"/>
<path fill-rule="evenodd" clip-rule="evenodd" d="M10.0299 9.65565C9.63937 10.0462 9.63938 10.6793 10.0299 11.0699L14.2725 15.3125L10.0299 19.5551C9.63938 19.9457 9.63937 20.5788 10.0299 20.9694C10.4204 21.3599 11.0536 21.3599 11.4441 20.9694L15.6868 16.7267L19.9294 20.9694C20.3199 21.3599 20.9531 21.3599 21.3436 20.9694C21.7341 20.5788 21.7341 19.9457 21.3436 19.5551L17.101 15.3125L21.3436 11.0699C21.7341 10.6793 21.7341 10.0462 21.3436 9.65565C20.9531 9.26511 20.3199 9.26511 19.9294 9.65565L15.6868 13.8983L11.4441 9.65565C11.0536 9.26512 10.4204 9.26511 10.0299 9.65565Z" fill="white"/>
</svg>
