<svg width="21" height="19" viewBox="0 0 21 19" fill="none" xmlns="http://www.w3.org/2000/svg">
<g filter="url(#filter0_d_2035_13721)">
<path fill-rule="evenodd" clip-rule="evenodd" d="M11.7548 2.04854C11.7548 2.67356 11.2397 3.18024 10.6043 3.18024C10.0323 3.18024 9.55781 2.7697 9.46875 2.23184L2.65965 3.56876C1.36351 3.82324 0.524639 5.07354 0.785976 6.36137L2.50806 14.8475C2.76939 16.1353 4.03198 16.973 5.32811 16.7185L12.4191 15.3263C12.3291 15.165 12.278 14.9798 12.278 14.7829C12.278 14.1579 12.7931 13.6512 13.4285 13.6512C14.064 13.6512 14.5791 14.1579 14.5791 14.7829C14.5791 14.8236 14.5769 14.8638 14.5726 14.9035L18.3384 14.1641C19.6345 13.9096 20.4734 12.6593 20.2121 11.3715L18.49 2.88533C18.2286 1.5975 16.9661 0.759808 15.6699 1.01429L11.7244 1.78897C11.7443 1.87232 11.7548 1.95922 11.7548 2.04854Z" fill="white"/>
<path d="M15.6318 0.818359C17.0348 0.543107 18.4022 1.44929 18.6855 2.8457L20.4082 11.332C20.6916 12.7294 19.7809 14.0847 18.377 14.3604L14.6113 15.0996C14.549 15.1119 14.4843 15.0937 14.4375 15.0508C14.3907 15.0078 14.3672 14.945 14.374 14.8818C14.3775 14.8495 14.3789 14.8166 14.3789 14.7832C14.3789 14.2718 13.9567 13.8517 13.4287 13.8516C12.9006 13.8516 12.4775 14.2717 12.4775 14.7832C12.4776 14.9448 12.5201 15.0963 12.5938 15.2285C12.6249 15.2844 12.6274 15.3521 12.6006 15.4102C12.5737 15.4681 12.5207 15.51 12.458 15.5225L5.36621 16.915C3.96345 17.1902 2.59609 16.2838 2.3125 14.8877L0.589844 6.40137C0.306245 5.00384 1.21705 3.64774 2.62109 3.37207L9.43066 2.03516L9.46973 2.03223C9.50983 2.03242 9.54955 2.04418 9.58301 2.06738C9.62737 2.0982 9.65719 2.14592 9.66602 2.19922C9.73897 2.63972 10.1296 2.98047 10.6045 2.98047C11.1324 2.98035 11.5545 2.56009 11.5547 2.04883C11.5547 1.97527 11.5466 1.90323 11.5303 1.83496C11.5177 1.7821 11.5273 1.72637 11.5566 1.68066C11.586 1.63513 11.6324 1.6033 11.6855 1.59277L15.6318 0.818359Z" stroke="black" stroke-width="0.4" stroke-linejoin="round"/>
</g>
<path fill-rule="evenodd" clip-rule="evenodd" d="M18.2565 2.93203C18.0212 1.7726 16.8841 1.0182 15.7172 1.24732L11.9932 1.9785C11.9944 2.00159 11.995 2.02483 11.995 2.04818C11.995 2.80703 11.3703 3.41777 10.6053 3.41777C10.0028 3.41777 9.48797 3.03948 9.29585 2.50811L2.70697 3.80178C1.54083 4.03074 0.786323 5.15529 1.02145 6.31396L2.74353 14.8001C2.97881 15.9595 4.11585 16.7139 5.28276 16.4848L12.0899 15.1483C12.0572 15.0318 12.0398 14.9091 12.0398 14.7825C12.0398 14.0237 12.6644 13.413 13.4295 13.413C14.1372 13.413 14.7247 13.9355 14.8089 14.6144L18.293 13.9303C19.4592 13.7014 20.2137 12.5768 19.9785 11.4182L18.2565 2.93203ZM15.6246 0.780563C17.0499 0.500704 18.4381 1.42169 18.7255 2.83792L20.4475 11.3241C20.7351 12.7411 19.8118 14.1171 18.3857 14.3971L14.6199 15.1365C14.5453 15.1511 14.4682 15.1296 14.4121 15.0786C14.356 15.0275 14.3276 14.953 14.3357 14.8778C14.3391 14.8466 14.3408 14.8148 14.3408 14.7825C14.3408 14.2913 13.9353 13.8887 13.4295 13.8887C12.9237 13.8887 12.5182 14.2913 12.5182 14.7825C12.5182 14.938 12.5585 15.0836 12.6293 15.2106C12.6663 15.2771 12.6692 15.3572 12.637 15.4261C12.6048 15.4951 12.5414 15.5446 12.4664 15.5593L5.37543 16.9516C3.95007 17.2314 2.56194 16.3104 2.27455 14.8942L0.552469 6.40807C0.26492 4.99107 1.18816 3.61504 2.61429 3.33503L9.4234 1.99811C9.48693 1.98564 9.55284 1.99931 9.60606 2.03601C9.65927 2.07271 9.69525 2.1293 9.70578 2.19284C9.7758 2.61578 10.1504 2.94201 10.6053 2.94201C11.111 2.94201 11.5166 2.53939 11.5166 2.04818C11.5166 1.9775 11.5082 1.90903 11.4926 1.84353C11.4776 1.78061 11.489 1.71434 11.5242 1.65995C11.5593 1.60557 11.6153 1.56776 11.679 1.55524L15.6246 0.780563Z" fill="black"/>
<path d="M13.8532 12.1834C13.1901 12.3203 12.8434 12.3163 12.8131 12.1713L11.3426 5.1274C11.2911 4.88101 11.3784 4.73449 11.6043 4.68786L13.5282 4.29068C14.6067 4.06802 15.429 4.12883 15.995 4.47309C16.5682 4.81586 16.9426 5.40756 17.1181 6.24819C17.2633 6.94389 17.1706 7.62825 16.8398 8.30127C16.6744 8.63778 16.3912 8.93813 15.9903 9.20233C15.5893 9.46652 15.0973 9.65879 14.5143 9.77915L14.9206 11.7249C14.9387 11.8119 14.8131 11.9021 14.5437 11.9955C14.2802 12.0801 14.05 12.1428 13.8532 12.1834ZM13.77 6.2137L14.1286 7.9312L14.2707 7.90186C14.5257 7.84921 14.7241 7.72511 14.8657 7.52958C15.0073 7.33404 15.0479 7.09133 14.9873 6.80146C14.9268 6.51159 14.8218 6.31784 14.6722 6.22022C14.5298 6.12109 14.3056 6.10312 13.9996 6.16631L13.77 6.2137Z" fill="black"/>
<path d="M7.52635 5.83336C7.56841 5.5979 8.00119 5.39517 8.82467 5.22516C9.03601 5.18154 9.2985 5.14624 9.61214 5.11929C9.93155 5.08359 10.0943 5.08023 10.1003 5.10922L9.02721 9.25396L11.7023 12.4548C11.7317 12.4866 11.5826 12.5551 11.2549 12.6606C10.9257 12.7588 10.6446 12.8319 10.4114 12.8801C9.48584 13.0712 8.95364 13.0525 8.81475 12.8242L7.56147 10.9172L7.2652 13.2121C7.23469 13.4301 6.78947 13.6278 5.92954 13.8053C5.71821 13.849 5.45283 13.8886 5.13342 13.9243C4.814 13.96 4.66358 13.9495 4.68214 13.8928L5.60222 9.77961L3.08248 6.558C3.05305 6.52628 3.19564 6.46283 3.51024 6.36765C3.83061 6.26371 4.10375 6.18842 4.32966 6.14179C5.24789 5.95223 5.77796 5.97886 5.91987 6.2217L7.05537 7.89219L7.52635 5.83336Z" fill="black"/>
<defs>
<filter id="filter0_d_2035_13721" x="0.338165" y="0.570312" width="20.3217" height="17.5938" filterUnits="userSpaceOnUse" color-interpolation-filters="sRGB">
<feFlood flood-opacity="0" result="BackgroundImageFix"/>
<feColorMatrix in="SourceAlpha" type="matrix" values="0 0 0 0 0 0 0 0 0 0 0 0 0 0 0 0 0 0 127 0" result="hardAlpha"/>
<feOffset dy="1"/>
<feComposite in2="hardAlpha" operator="out"/>
<feColorMatrix type="matrix" values="0 0 0 0 0 0 0 0 0 0 0 0 0 0 0 0 0 0 1 0"/>
<feBlend mode="normal" in2="BackgroundImageFix" result="effect1_dropShadow_2035_13721"/>
<feBlend mode="normal" in="SourceGraphic" in2="effect1_dropShadow_2035_13721" result="shape"/>
</filter>
</defs>
</svg>
