<svg width="126" height="109" viewBox="0 0 126 109" fill="none" xmlns="http://www.w3.org/2000/svg">
<g filter="url(#filter0_d_2103_7107)">
<path fill-rule="evenodd" clip-rule="evenodd" d="M78.4414 20.8739C77.6006 24.0116 74.2497 25.84 70.9569 24.9577C67.9929 24.1635 66.0863 21.4436 66.3483 18.6199L29.2643 15.8767C22.2052 15.3545 16.1762 20.4664 15.7982 27.2944L13.3071 72.2875C12.929 79.1155 18.3451 85.074 25.4041 85.5962L64.0231 88.453C63.774 87.5184 63.7581 86.5178 64.023 85.5292C64.8638 82.3914 68.2147 80.5631 71.5075 81.4454C74.8004 82.3277 76.7882 85.5866 75.9474 88.7243C75.8926 88.9288 75.8272 89.1276 75.7518 89.3206L96.2611 90.8377C103.32 91.3599 109.349 86.248 109.727 79.42L112.218 34.4269C112.596 27.5988 107.18 21.6403 100.121 21.1182L78.633 19.5286C78.6239 19.9747 78.5615 20.4255 78.4414 20.8739Z" fill="white"/>
<path d="M100.161 20.5834C107.494 21.1259 113.149 27.3195 112.754 34.4561L110.263 79.45C109.867 86.5953 103.562 91.9154 96.2215 91.3724L75.7122 89.8553C75.5424 89.8427 75.3883 89.7507 75.2976 89.6067C75.2069 89.4627 75.1897 89.2838 75.2517 89.1253C75.3198 88.9507 75.38 88.7709 75.4296 88.5856C76.1875 85.7573 74.399 82.7751 71.3685 81.9631C68.3382 81.1513 65.2991 82.8399 64.5413 85.6681C64.3016 86.5626 64.316 87.4678 64.5417 88.315C64.5863 88.4827 64.547 88.6617 64.4363 88.7953C64.3255 88.929 64.1564 89.0011 63.9832 88.9883L25.3648 86.1311C18.0312 85.5887 12.3765 79.3942 12.7716 72.2574L15.2623 27.2645C15.658 20.1191 21.9637 14.7991 29.304 15.3421L66.3879 18.0854L66.4932 18.1035C66.5956 18.1322 66.6883 18.1911 66.758 18.2735C66.8509 18.3834 66.8957 18.5265 66.8824 18.6698C66.646 21.219 68.3708 23.7091 71.0961 24.4394C74.1264 25.2512 77.1652 23.5634 77.9232 20.7354C78.032 20.3294 78.0884 19.9213 78.0967 19.5181C78.0997 19.3709 78.1632 19.2305 78.2721 19.1314C78.381 19.0325 78.5261 18.9833 78.6728 18.9941L100.161 20.5834Z" stroke="black" stroke-width="1.07299" stroke-linejoin="round"/>
</g>
<path fill-rule="evenodd" clip-rule="evenodd" d="M110.94 34.3446C111.28 28.1974 106.403 22.8313 100.047 22.3612L79.7655 20.8609C79.7406 20.9785 79.7124 21.096 79.681 21.2132C78.6602 25.0227 74.6015 27.2214 70.6368 26.1591C67.5147 25.3225 65.3558 22.7086 65.075 19.7742L29.1904 17.1197C22.8393 16.6499 17.4167 21.2477 17.0766 27.3909L14.5854 72.384C14.2451 78.5313 19.1226 83.8973 25.4779 84.3674L62.5513 87.1099C62.5386 86.4795 62.6131 85.8394 62.7833 85.2042C63.8041 81.3946 67.8628 79.196 71.8274 80.2583C75.4946 81.2409 77.8365 84.68 77.3595 88.2053L96.3348 89.6089C102.686 90.0787 108.109 85.4809 108.449 79.3378L110.94 34.3446ZM100.195 19.8893C107.958 20.4636 113.912 27.0146 113.497 34.5234L111.006 79.5165C110.59 87.0293 103.954 92.6554 96.1872 92.0808L75.6779 90.5637C75.2716 90.5336 74.9006 90.3185 74.6787 89.9843C74.4567 89.6501 74.4101 89.2366 74.5532 88.8703C74.6126 88.7183 74.6643 88.5612 74.7077 88.3993C75.3684 85.9334 73.8084 83.349 71.1875 82.6467C68.5665 81.9444 65.9233 83.4025 65.2626 85.8685C65.0535 86.6489 65.0662 87.4358 65.2623 88.1716C65.365 88.5568 65.2721 88.963 65.0125 89.2644C64.7528 89.5659 64.3577 89.7263 63.9492 89.6961L25.3302 86.8393C17.5674 86.2651 11.6128 79.7141 12.0285 72.2053L14.5197 27.2122C14.9356 19.6993 21.5709 14.0733 29.338 14.6479L66.422 17.3911C66.768 17.4167 67.0911 17.5768 67.3176 17.835C67.544 18.0931 67.6543 18.4271 67.6233 18.7607C67.4173 20.9812 68.9197 23.139 71.2768 23.7706C73.8978 24.4729 76.5409 23.0148 77.2017 20.5489C77.2967 20.1941 77.3458 19.8387 77.3529 19.4882C77.3597 19.1516 77.5079 18.8346 77.7633 18.6105C78.0187 18.3863 78.3593 18.2741 78.7067 18.2998L100.195 19.8893Z" fill="black"/>
<path d="M75.676 74.664C72.0553 74.4304 70.264 73.9288 70.3021 73.1592L72.1568 35.7555C72.2217 34.4471 72.8709 33.8327 74.1043 33.9123L84.6084 34.5898C90.4971 34.9697 94.6764 36.4167 97.1462 38.9308C99.6559 41.4476 100.8 44.9378 100.579 49.4017C100.396 53.0958 98.9941 56.4026 96.3746 59.322C95.0648 60.7817 93.1934 61.8963 90.7603 62.6659C88.3272 63.4355 85.5191 63.7176 82.3361 63.5123L81.8237 73.8445C81.8008 74.3062 81.0286 74.5846 79.5071 74.6794C78.0273 74.7384 76.7503 74.7333 75.676 74.664ZM83.2749 44.5795L82.8226 53.6996L83.5985 53.7496C84.9911 53.8394 86.1859 53.4919 87.1828 52.7069C88.1797 51.9219 88.7163 50.7597 88.7926 49.2205C88.8689 47.6813 88.5851 46.5627 87.9411 45.8649C87.337 45.1697 86.1993 44.7682 84.5282 44.6604L83.2749 44.5795Z" fill="black"/>
<path d="M51.4321 34.0134C51.9668 32.8897 54.4822 32.4729 58.9782 32.7629C60.1321 32.8374 61.5398 33.0247 63.2014 33.3249C64.9047 33.5891 65.7525 33.7982 65.7449 33.9522L54.6085 53.2695L64.1652 73.0529C64.2751 73.253 63.4101 73.3902 61.5703 73.4646C59.7324 73.5004 58.1768 73.4773 56.9036 73.3952C51.8504 73.0693 49.1176 72.2367 48.705 70.8976L44.7755 59.584L40.1532 70.6934C39.7019 71.7452 37.1287 72.1197 32.4337 71.8169C31.2798 71.7424 29.8513 71.5731 28.148 71.3088C26.4447 71.0445 25.6794 70.7828 25.8519 70.5237L36.1527 51.1525L27.4286 31.4807C27.3188 31.2806 28.1431 31.1601 29.9014 31.1191C31.7014 31.0421 33.2181 31.0435 34.4516 31.123C39.4649 31.4464 42.176 32.3161 42.5847 33.7322L46.222 43.6951L51.4321 34.0134Z" fill="black"/>
<defs>
<filter id="filter0_d_2103_7107" x="12.2153" y="14.7656" width="101.095" height="79.8661" filterUnits="userSpaceOnUse" color-interpolation-filters="sRGB">
<feFlood flood-opacity="0" result="BackgroundImageFix"/>
<feColorMatrix in="SourceAlpha" type="matrix" values="0 0 0 0 0 0 0 0 0 0 0 0 0 0 0 0 0 0 127 0" result="hardAlpha"/>
<feOffset dy="2.68246"/>
<feComposite in2="hardAlpha" operator="out"/>
<feColorMatrix type="matrix" values="0 0 0 0 0 0 0 0 0 0 0 0 0 0 0 0 0 0 1 0"/>
<feBlend mode="normal" in2="BackgroundImageFix" result="effect1_dropShadow_2103_7107"/>
<feBlend mode="normal" in="SourceGraphic" in2="effect1_dropShadow_2103_7107" result="shape"/>
</filter>
</defs>
</svg>
