<svg width="31" height="31" viewBox="0 0 31 31" fill="none" xmlns="http://www.w3.org/2000/svg">
<rect width="30.6274" height="30.6274" rx="15.3137" fill="white" fill-opacity="0.5"/>
<path fill-rule="evenodd" clip-rule="evenodd" d="M9.65685 9.65565C9.26632 10.0462 9.26633 10.6793 9.65685 11.0699L13.8995 15.3125L9.65685 19.5551C9.26633 19.9457 9.26632 20.5788 9.65685 20.9694C10.0474 21.3599 10.6805 21.3599 11.0711 20.9694L15.3137 16.7267L19.5563 20.9694C19.9469 21.3599 20.58 21.3599 20.9706 20.9694C21.3611 20.5788 21.3611 19.9457 20.9706 19.5551L16.7279 15.3125L20.9706 11.0699C21.3611 10.6793 21.3611 10.0462 20.9706 9.65565C20.58 9.26511 19.9469 9.26511 19.5563 9.65565L15.3137 13.8983L11.0711 9.65565C10.6805 9.26512 10.0474 9.26511 9.65685 9.65565Z" fill="white"/>
</svg>
