<svg width="110" height="111" viewBox="0 0 110 111" fill="none" xmlns="http://www.w3.org/2000/svg">
<path d="M46.1721 4.19641C50.9866 -0.819044 59.0134 -0.819045 63.8279 4.19641C66.8228 7.31639 71.2452 8.62288 75.4543 7.62931C82.1865 6.04016 88.9168 10.4605 90.27 17.2441C91.1181 21.496 94.1443 25.0537 98.2245 26.5196C104.758 28.8669 108.045 36.2169 105.542 42.6923C103.974 46.7484 104.622 51.3885 107.264 54.8425C111.499 60.3792 110.378 68.341 104.754 72.4598C101.25 75.026 99.3444 79.3001 99.7168 83.6271C100.31 90.5241 95.099 96.6681 88.1877 97.06C83.8658 97.3051 79.9745 99.8416 77.9745 103.681C74.7735 109.825 67.0733 112.138 61.0592 108.698C57.3051 106.551 52.6949 106.551 48.9408 108.698C42.9267 112.138 35.2265 109.825 32.0255 103.681C30.0255 99.8416 26.1342 97.3051 21.8123 97.06C14.901 96.6681 9.68964 90.5241 10.2832 83.6271C10.6556 79.3001 8.74979 75.026 5.24599 72.4598C-0.377821 68.341 -1.49927 60.3792 2.73592 54.8425C5.37794 51.3885 6.02599 46.7484 4.45803 42.6923C1.95481 36.2169 5.2419 28.8669 11.7755 26.5196C15.8558 25.0537 18.8819 21.496 19.73 17.2441C21.0832 10.4605 27.8135 6.04016 34.5457 7.62931C38.7548 8.62288 43.1772 7.31639 46.1721 4.19641Z" fill="url(#paint0_linear_2035_9244)" fill-opacity="0.1"/>
<defs>
<linearGradient id="paint0_linear_2035_9244" x1="-25.6081" y1="-14.375" x2="65.5481" y2="148.331" gradientUnits="userSpaceOnUse">
<stop stop-color="white"/>
<stop offset="1" stop-color="white" stop-opacity="0"/>
</linearGradient>
</defs>
</svg>
