<svg width="20" height="20" viewBox="0 0 20 20" fill="none" xmlns="http://www.w3.org/2000/svg">
<rect width="20" height="20" transform="translate(0 20) rotate(-90)" fill="#982FBB"/>
<path fill-rule="evenodd" clip-rule="evenodd" d="M4.29259 14.7072C4.10512 14.5197 3.99981 14.2654 3.99981 14.0002C3.99981 13.735 4.10512 13.4807 4.29259 13.2932L7.58559 10.0002L4.29259 6.70721C4.19708 6.61497 4.1209 6.50462 4.06849 6.38262C4.01608 6.26061 3.9885 6.12939 3.98734 5.99661C3.98619 5.86383 4.01149 5.73215 4.06177 5.60926C4.11205 5.48636 4.1863 5.37471 4.2802 5.28082C4.37409 5.18693 4.48574 5.11267 4.60864 5.06239C4.73153 5.01211 4.86321 4.98681 4.99599 4.98796C5.12877 4.98912 5.25999 5.0167 5.382 5.06911C5.504 5.12152 5.61435 5.1977 5.70659 5.29321L9.70659 9.29321C9.89406 9.48074 9.99938 9.73505 9.99938 10.0002C9.99938 10.2654 9.89406 10.5197 9.70659 10.7072L5.70659 14.7072C5.51907 14.8947 5.26476 15 4.99959 15C4.73443 15 4.48012 14.8947 4.29259 14.7072Z" fill="#E9E9E9"/>
<path fill-rule="evenodd" clip-rule="evenodd" d="M10.3053 14.7072C10.1178 14.5197 10.0125 14.2654 10.0125 14.0002C10.0125 13.735 10.1178 13.4807 10.3053 13.2932L13.5983 10.0002L10.3053 6.70721C10.2098 6.61497 10.1336 6.50462 10.0812 6.38262C10.0288 6.26061 10.0012 6.12939 10 5.99661C9.99888 5.86383 10.0242 5.73215 10.0745 5.60926C10.1247 5.48636 10.199 5.37471 10.2929 5.28082C10.3868 5.18693 10.4984 5.11267 10.6213 5.06239C10.7442 5.01211 10.8759 4.98681 11.0087 4.98796C11.1415 4.98912 11.2727 5.0167 11.3947 5.06911C11.5167 5.12152 11.627 5.1977 11.7193 5.29321L15.7193 9.29321C15.9068 9.48074 16.0121 9.73505 16.0121 10.0002C16.0121 10.2654 15.9068 10.5197 15.7193 10.7072L11.7193 14.7072C11.5318 14.8947 11.2775 15 11.0123 15C10.7471 15 10.4928 14.8947 10.3053 14.7072Z" fill="#E9E9E9"/>
</svg>
