<svg width="40" height="40" viewBox="0 0 40 40" fill="none" xmlns="http://www.w3.org/2000/svg">
<path d="M0 0L32 0C36.4183 0 40 3.58172 40 8V40H8C3.58172 40 0 36.4183 0 32L0 0Z" fill="#A02F73"/>
<path fill-rule="evenodd" clip-rule="evenodd" d="M32.8002 19.9992C32.8002 23.394 31.4516 26.6497 29.0512 29.0502C26.6507 31.4507 23.395 32.7992 20.0002 32.7992C16.6054 32.7992 13.3497 31.4507 10.9492 29.0502C8.54876 26.6497 7.2002 23.394 7.2002 19.9992C7.2002 16.6044 8.54876 13.3487 10.9492 10.9483C13.3497 8.54779 16.6054 7.19922 20.0002 7.19922C23.395 7.19922 26.6507 8.54779 29.0512 10.9483C31.4516 13.3487 32.8002 16.6044 32.8002 19.9992ZM21.6002 13.5992C21.6002 14.0236 21.4316 14.4305 21.1316 14.7306C20.8315 15.0306 20.4245 15.1992 20.0002 15.1992C19.5759 15.1992 19.1689 15.0306 18.8688 14.7306C18.5688 14.4305 18.4002 14.0236 18.4002 13.5992C18.4002 13.1749 18.5688 12.7679 18.8688 12.4678C19.1689 12.1678 19.5759 11.9992 20.0002 11.9992C20.4245 11.9992 20.8315 12.1678 21.1316 12.4678C21.4316 12.7679 21.6002 13.1749 21.6002 13.5992ZM18.4002 18.3992C17.9758 18.3992 17.5689 18.5678 17.2688 18.8678C16.9688 19.1679 16.8002 19.5749 16.8002 19.9992C16.8002 20.4236 16.9688 20.8305 17.2688 21.1306C17.5689 21.4306 17.9758 21.5992 18.4002 21.5992V26.3992C18.4002 26.8236 18.5688 27.2305 18.8688 27.5306C19.1689 27.8306 19.5759 27.9992 20.0002 27.9992H21.6002C22.0245 27.9992 22.4315 27.8306 22.7316 27.5306C23.0316 27.2305 23.2002 26.8236 23.2002 26.3992C23.2002 25.9749 23.0316 25.5679 22.7316 25.2678C22.4315 24.9678 22.0245 24.7992 21.6002 24.7992V19.9992C21.6002 19.5749 21.4316 19.1679 21.1316 18.8678C20.8315 18.5678 20.4245 18.3992 20.0002 18.3992H18.4002Z" fill="white" fill-opacity="0.6"/>
</svg>
