<svg width="36" height="36" viewBox="0 0 36 36" fill="none" xmlns="http://www.w3.org/2000/svg">
<g clip-path="url(#clip0_3212_8278)">
<rect width="36" height="36" rx="18" fill="#EF890F"/>
<path fill-rule="evenodd" clip-rule="evenodd" d="M36 18C36 22.7739 34.1036 27.3523 30.7279 30.7279C27.3523 34.1036 22.7739 36 18 36C13.2261 36 8.64773 34.1036 5.27208 30.7279C1.89642 27.3523 0 22.7739 0 18C0 13.2261 1.89642 8.64773 5.27208 5.27208C8.64773 1.89642 13.2261 0 18 0C22.7739 0 27.3523 1.89642 30.7279 5.27208C34.1036 8.64773 36 13.2261 36 18ZM20.25 9C20.25 9.59674 20.0129 10.169 19.591 10.591C19.169 11.0129 18.5967 11.25 18 11.25C17.4033 11.25 16.831 11.0129 16.409 10.591C15.9871 10.169 15.75 9.59674 15.75 9C15.75 8.40326 15.9871 7.83097 16.409 7.40901C16.831 6.98705 17.4033 6.75 18 6.75C18.5967 6.75 19.169 6.98705 19.591 7.40901C20.0129 7.83097 20.25 8.40326 20.25 9ZM15.75 15.75C15.1533 15.75 14.581 15.9871 14.159 16.409C13.7371 16.831 13.5 17.4033 13.5 18C13.5 18.5967 13.7371 19.169 14.159 19.591C14.581 20.0129 15.1533 20.25 15.75 20.25V27C15.75 27.5967 15.9871 28.169 16.409 28.591C16.831 29.0129 17.4033 29.25 18 29.25H20.25C20.8467 29.25 21.419 29.0129 21.841 28.591C22.2629 28.169 22.5 27.5967 22.5 27C22.5 26.4033 22.2629 25.831 21.841 25.409C21.419 24.9871 20.8467 24.75 20.25 24.75V18C20.25 17.4033 20.0129 16.831 19.591 16.409C19.169 15.9871 18.5967 15.75 18 15.75H15.75Z" fill="white" fill-opacity="0.6"/>
</g>
<defs>
<clipPath id="clip0_3212_8278">
<rect width="36" height="36" rx="18" fill="white"/>
</clipPath>
</defs>
</svg>
