<svg width="21" height="17" viewBox="0 0 21 17" fill="none" xmlns="http://www.w3.org/2000/svg">
<g filter="url(#filter0_d_3212_8267)">
<path fill-rule="evenodd" clip-rule="evenodd" d="M12.0741 1.54854C12.0741 2.17356 11.559 2.68024 10.9236 2.68024C10.3516 2.68024 9.87714 2.2697 9.78809 1.73184L2.97898 3.06876C1.68285 3.32324 0.843975 4.57354 1.10531 5.86137L2.82739 14.3475C3.08873 15.6353 4.35131 16.473 5.64745 16.2185L12.7384 14.8263C12.6485 14.665 12.5973 14.4798 12.5973 14.2829C12.5973 13.6579 13.1124 13.1512 13.7479 13.1512C14.3833 13.1512 14.8984 13.6579 14.8984 14.2829C14.8984 14.3236 14.8962 14.3638 14.8919 14.4035L18.6577 13.6641C19.9539 13.4096 20.7927 12.1593 20.5314 10.8715L18.8093 2.38533C18.548 1.0975 17.2854 0.259808 15.9893 0.514294L12.0437 1.28897C12.0636 1.37232 12.0741 1.45922 12.0741 1.54854Z" fill="white"/>
<path d="M15.9512 0.318359C17.3541 0.043107 18.7215 0.949287 19.0049 2.3457L20.7275 10.832C21.0109 12.2294 20.1002 13.5847 18.6963 13.8604L14.9307 14.5996C14.8683 14.6119 14.8037 14.5937 14.7568 14.5508C14.71 14.5078 14.6866 14.445 14.6934 14.3818C14.6968 14.3495 14.6982 14.3166 14.6982 14.2832C14.6982 13.7718 14.276 13.3517 13.748 13.3516C13.22 13.3516 12.7969 13.7717 12.7969 14.2832C12.7969 14.4448 12.8394 14.5963 12.9131 14.7285C12.9442 14.7844 12.9467 14.8521 12.9199 14.9102C12.893 14.9681 12.84 15.01 12.7773 15.0225L5.68555 16.415C4.28278 16.6902 2.91542 15.7838 2.63184 14.3877L0.90918 5.90137C0.625581 4.50384 1.53639 3.14774 2.94043 2.87207L9.75 1.53516L9.78906 1.53223C9.82916 1.53242 9.86889 1.54418 9.90234 1.56738C9.94671 1.5982 9.97653 1.64592 9.98535 1.69922C10.0583 2.13972 10.4489 2.48047 10.9238 2.48047C11.4517 2.48035 11.8739 2.06009 11.874 1.54883C11.874 1.47527 11.8659 1.40323 11.8496 1.33496C11.8371 1.2821 11.8466 1.22637 11.876 1.18066C11.9054 1.13513 11.9517 1.1033 12.0049 1.09277L15.9512 0.318359Z" stroke="black" stroke-width="0.4" stroke-linejoin="round"/>
</g>
<path fill-rule="evenodd" clip-rule="evenodd" d="M18.5758 2.43594C18.3405 1.27651 17.2035 0.522111 16.0366 0.751224L12.3126 1.4824C12.3137 1.5055 12.3143 1.52873 12.3143 1.55209C12.3143 2.31093 11.6897 2.92168 10.9246 2.92168C10.3221 2.92168 9.80731 2.54339 9.61518 2.01201L3.0263 3.30569C1.86016 3.53465 1.10566 4.6592 1.34079 5.81786L3.06286 14.304C3.29815 15.4634 4.43519 16.2178 5.6021 15.9887L12.4093 14.6522C12.3766 14.5357 12.3591 14.413 12.3591 14.2864C12.3591 13.5276 12.9838 12.9169 13.7488 12.9169C14.4565 12.9169 15.0441 13.4394 15.1283 14.1183L18.6124 13.4343C19.7785 13.2053 20.533 12.0807 20.2979 10.9221L18.5758 2.43594ZM15.9439 0.284469C17.3693 0.00461015 18.7574 0.925594 19.0448 2.34183L20.7669 10.828C21.0544 12.245 20.1312 13.621 18.705 13.901L14.9393 14.6404C14.8647 14.655 14.7875 14.6335 14.7314 14.5825C14.6753 14.5314 14.647 14.4569 14.6551 14.3817C14.6584 14.3505 14.6602 14.3187 14.6602 14.2864C14.6602 13.7952 14.2546 13.3926 13.7488 13.3926C13.2431 13.3926 12.8375 13.7952 12.8375 14.2864C12.8375 14.4419 12.8778 14.5875 12.9486 14.7145C12.9857 14.781 12.9885 14.8611 12.9563 14.93C12.9241 14.999 12.8607 15.0485 12.7857 15.0632L5.69477 16.4555C4.2694 16.7353 2.88128 15.8143 2.59388 14.3981L0.871805 5.91198C0.584256 4.49498 1.50749 3.11894 2.93363 2.83893L9.74273 1.50202C9.80627 1.48954 9.87218 1.50322 9.92539 1.53992C9.97861 1.57662 10.0146 1.6332 10.0251 1.69675C10.0951 2.11968 10.4697 2.44591 10.9246 2.44591C11.4304 2.44591 11.8359 2.0433 11.8359 1.55209C11.8359 1.48141 11.8276 1.41293 11.812 1.34743C11.7969 1.28452 11.8083 1.21824 11.8435 1.16386C11.8787 1.10947 11.9346 1.07167 11.9984 1.05914L15.9439 0.284469Z" fill="black"/>
<path d="M14.1728 11.6834C13.5096 11.8203 13.1629 11.8163 13.1326 11.6713L11.6621 4.6274C11.6107 4.38101 11.6979 4.23449 11.9238 4.18786L13.8477 3.79068C14.9263 3.56802 15.7485 3.62883 16.3145 3.97309C16.8878 4.31586 17.2621 4.90756 17.4376 5.74819C17.5829 6.44389 17.4901 7.12825 17.1593 7.80127C16.9939 8.13778 16.7107 8.43813 16.3098 8.70233C15.9089 8.96652 15.4169 9.15879 14.8339 9.27915L15.2401 11.2249C15.2583 11.3119 15.1327 11.4021 14.8633 11.4955C14.5997 11.5801 14.3695 11.6428 14.1728 11.6834ZM14.0896 5.7137L14.4481 7.4312L14.5902 7.40186C14.8453 7.34921 15.0436 7.22511 15.1852 7.02958C15.3268 6.83404 15.3674 6.59133 15.3069 6.30146C15.2464 6.01159 15.1413 5.81784 14.9917 5.72022C14.8494 5.62109 14.6252 5.60312 14.3191 5.66631L14.0896 5.7137Z" fill="black"/>
<path d="M7.8459 5.33336C7.88796 5.0979 8.32073 4.89517 9.14422 4.72516C9.35556 4.68154 9.61805 4.64624 9.93169 4.61929C10.2511 4.58359 10.4138 4.58023 10.4199 4.60922L9.34676 8.75396L12.0218 11.9548C12.0512 11.9866 11.9021 12.0551 11.5745 12.1606C11.2453 12.2588 10.9641 12.3319 10.7309 12.3801C9.80539 12.5712 9.27319 12.5525 9.1343 12.3242L7.88102 10.4172L7.58475 12.7121C7.55424 12.9301 7.10902 13.1278 6.24909 13.3053C6.03776 13.349 5.77238 13.3886 5.45297 13.4243C5.13355 13.46 4.98313 13.4495 5.00169 13.3928L5.92177 9.27961L3.40203 6.058C3.3726 6.02628 3.51519 5.96283 3.82978 5.86765C4.15016 5.76371 4.4233 5.68842 4.64921 5.64179C5.56744 5.45223 6.09751 5.47886 6.23942 5.7217L7.37492 7.39219L7.8459 5.33336Z" fill="black"/>
<defs>
<filter id="filter0_d_3212_8267" x="0.657227" y="0.0703125" width="20.3223" height="17.5938" filterUnits="userSpaceOnUse" color-interpolation-filters="sRGB">
<feFlood flood-opacity="0" result="BackgroundImageFix"/>
<feColorMatrix in="SourceAlpha" type="matrix" values="0 0 0 0 0 0 0 0 0 0 0 0 0 0 0 0 0 0 127 0" result="hardAlpha"/>
<feOffset dy="1"/>
<feComposite in2="hardAlpha" operator="out"/>
<feColorMatrix type="matrix" values="0 0 0 0 0 0 0 0 0 0 0 0 0 0 0 0 0 0 1 0"/>
<feBlend mode="normal" in2="BackgroundImageFix" result="effect1_dropShadow_3212_8267"/>
<feBlend mode="normal" in="SourceGraphic" in2="effect1_dropShadow_3212_8267" result="shape"/>
</filter>
</defs>
</svg>
