<svg width="16" height="13" viewBox="0 0 16 13" fill="none" xmlns="http://www.w3.org/2000/svg">
<g filter="url(#filter0_d_3212_7830)">
<path fill-rule="evenodd" clip-rule="evenodd" d="M9.00462 0.849984C9.00462 1.35782 8.59253 1.76949 8.0842 1.76949C7.62662 1.76949 7.24703 1.43593 7.17578 0.99892L1.7285 2.08516C0.691589 2.29193 0.0204922 3.3078 0.229562 4.35416L1.60723 11.2491C1.8163 12.2955 2.82636 12.9761 3.86327 12.7694L9.53603 11.6382C9.46409 11.5071 9.42318 11.3567 9.42318 11.1966C9.42318 10.6888 9.83527 10.2771 10.3436 10.2771C10.8519 10.2771 11.264 10.6888 11.264 11.1966C11.264 11.2297 11.2623 11.2624 11.2589 11.2946L14.2715 10.6939C15.3084 10.4871 15.9795 9.47122 15.7704 8.42486L14.3928 1.52988C14.1837 0.483515 13.1736 -0.197109 12.1367 0.00966097L8.9803 0.639082C8.99621 0.706805 9.00462 0.777413 9.00462 0.849984Z" fill="white"/>
<path d="M12.0977 -0.186523C13.2444 -0.415159 14.3583 0.337549 14.5889 1.49023L15.9668 8.38574C16.1971 9.53871 15.4575 10.6609 14.3105 10.8896L11.2979 11.4912C11.2355 11.5036 11.1709 11.4852 11.124 11.4424C11.077 11.3995 11.0529 11.3367 11.0596 11.2734C11.0622 11.2483 11.0645 11.2223 11.0645 11.1963C11.0643 10.7993 10.7416 10.4776 10.3438 10.4775C9.9458 10.4775 9.62324 10.7993 9.62305 11.1963C9.62305 11.3218 9.65482 11.4397 9.71094 11.542C9.74157 11.5978 9.74461 11.6649 9.71777 11.7227C9.69089 11.7804 9.63762 11.8215 9.5752 11.834L3.90234 12.9658C2.75549 13.1945 1.64149 12.441 1.41113 11.2881L0.0332031 4.39355C-0.197176 3.24054 0.542501 2.11739 1.68945 1.88867L7.13672 0.802734L7.17676 0.798828C7.21684 0.799024 7.25659 0.811772 7.29004 0.834961C7.33442 0.865885 7.36434 0.913399 7.37305 0.966797C7.42875 1.30838 7.72598 1.56923 8.08398 1.56934C8.48205 1.56934 8.80469 1.2468 8.80469 0.849609C8.80466 0.792682 8.79754 0.737296 8.78516 0.68457C8.77288 0.631916 8.78327 0.57674 8.8125 0.53125C8.84183 0.48565 8.88823 0.453962 8.94141 0.443359L12.0977 -0.186523Z" stroke="black" stroke-width="0.4" stroke-linejoin="round"/>
</g>
<path fill-rule="evenodd" clip-rule="evenodd" d="M14.2052 1.57002C14.017 0.627984 13.1073 0.0150357 12.1738 0.20119L9.19458 0.795274C9.19552 0.814039 9.196 0.832916 9.196 0.851894C9.196 1.46845 8.69626 1.96468 8.0842 1.96468C7.60222 1.96468 7.19038 1.65732 7.03668 1.22558L1.76557 2.27669C0.832662 2.46272 0.229058 3.37642 0.41716 4.31783L1.79482 11.2128C1.98305 12.1549 2.89268 12.7678 3.82621 12.5817L9.27195 11.4957C9.24579 11.401 9.23181 11.3014 9.23181 11.1986C9.23181 10.582 9.73155 10.0858 10.3436 10.0858C10.9097 10.0858 11.3798 10.5103 11.4471 11.062L14.2344 10.5062C15.1673 10.3201 15.7709 9.40642 15.5828 8.465L14.2052 1.57002ZM12.0997 -0.178048C13.2399 -0.405434 14.3504 0.342865 14.5804 1.49355L15.958 8.38854C16.1881 9.53985 15.4495 10.6579 14.3086 10.8854L11.2959 11.4861C11.2363 11.498 11.1745 11.4806 11.1297 11.4391C11.0848 11.3976 11.0621 11.337 11.0686 11.2759C11.0713 11.2506 11.0727 11.2248 11.0727 11.1986C11.0727 10.7995 10.7482 10.4723 10.3436 10.4723C9.93899 10.4723 9.61456 10.7995 9.61456 11.1986C9.61456 11.3249 9.64677 11.4432 9.7034 11.5463C9.73306 11.6004 9.73536 11.6655 9.7096 11.7215C9.68384 11.7775 9.63311 11.8177 9.5731 11.8297L3.90035 12.9609C2.76005 13.1883 1.64955 12.44 1.41964 11.2893L0.0419751 4.3943C-0.188064 3.24299 0.550526 2.12496 1.69143 1.89745L7.13872 0.81121C7.18955 0.801075 7.24227 0.812186 7.28485 0.842003C7.32742 0.871821 7.3562 0.917798 7.36462 0.969428C7.42064 1.31306 7.72031 1.57812 8.0842 1.57812C8.48882 1.57812 8.81325 1.251 8.81325 0.851894C8.81325 0.794464 8.8066 0.738828 8.7941 0.68561C8.78209 0.634494 8.7912 0.580643 8.81933 0.536455C8.84747 0.492267 8.8922 0.461549 8.94323 0.451373L12.0997 -0.178048Z" fill="black"/>
<path d="M10.6826 9.08405C10.152 9.19529 9.87466 9.19203 9.85045 9.07427L8.67403 3.35107C8.63288 3.15088 8.70267 3.03183 8.8834 2.99394L10.4225 2.67124C11.2854 2.49033 11.9432 2.53973 12.3959 2.81945C12.8546 3.09794 13.1541 3.5787 13.2945 4.26171C13.4106 4.82697 13.3364 5.38301 13.0718 5.92984C12.9395 6.20326 12.7129 6.44729 12.3922 6.66195C12.0714 6.8766 11.6779 7.03283 11.2115 7.13061L11.5364 8.71156C11.5509 8.78222 11.4505 8.85549 11.235 8.93138C11.0241 9.00016 10.84 9.05105 10.6826 9.08405ZM10.616 4.23369L10.9028 5.62916L11.0165 5.60532C11.2206 5.56254 11.3792 5.46171 11.4925 5.30284C11.6058 5.14396 11.6383 4.94677 11.5898 4.71124C11.5414 4.47572 11.4574 4.3183 11.3377 4.23899C11.2238 4.15845 11.0445 4.14385 10.7996 4.19519L10.616 4.23369Z" fill="black"/>
<path d="M5.62125 3.92515C5.6549 3.73384 6.00112 3.56912 6.65991 3.43099C6.82898 3.39554 7.03897 3.36687 7.28988 3.34497C7.54541 3.31596 7.6756 3.31323 7.68044 3.33678L6.82194 6.70439L8.96198 9.30511C8.98552 9.33088 8.86623 9.3866 8.6041 9.47227C8.34076 9.55205 8.11581 9.6115 7.92925 9.65062C7.18884 9.80586 6.76308 9.79071 6.65197 9.60519L5.64934 8.05578L5.41233 9.92038C5.38792 10.0975 5.03174 10.2581 4.34381 10.4024C4.17474 10.4378 3.96244 10.47 3.7069 10.4991C3.45137 10.5281 3.33103 10.5195 3.34588 10.4734L4.08195 7.13148L2.06615 4.51392C2.04261 4.48815 2.15668 4.4366 2.40836 4.35926C2.66466 4.27481 2.88317 4.21364 3.0639 4.17575C3.79848 4.02173 4.22254 4.04337 4.33607 4.24067L5.24447 5.59795L5.62125 3.92515Z" fill="black"/>
<defs>
<filter id="filter0_d_3212_7830" x="-0.208984" y="-0.425781" width="16.418" height="14.6328" filterUnits="userSpaceOnUse" color-interpolation-filters="sRGB">
<feFlood flood-opacity="0" result="BackgroundImageFix"/>
<feColorMatrix in="SourceAlpha" type="matrix" values="0 0 0 0 0 0 0 0 0 0 0 0 0 0 0 0 0 0 127 0" result="hardAlpha"/>
<feOffset dy="1"/>
<feComposite in2="hardAlpha" operator="out"/>
<feColorMatrix type="matrix" values="0 0 0 0 0 0 0 0 0 0 0 0 0 0 0 0 0 0 1 0"/>
<feBlend mode="normal" in2="BackgroundImageFix" result="effect1_dropShadow_3212_7830"/>
<feBlend mode="normal" in="SourceGraphic" in2="effect1_dropShadow_3212_7830" result="shape"/>
</filter>
</defs>
</svg>
