<svg width="15" height="15" viewBox="0 0 15 15" fill="none" xmlns="http://www.w3.org/2000/svg">
<path fill-rule="evenodd" clip-rule="evenodd" d="M2 13.25C2 13.0511 2.07902 12.8603 2.21967 12.7197C2.36032 12.579 2.55109 12.5 2.75 12.5H11.75C11.9489 12.5 12.1397 12.579 12.2803 12.7197C12.421 12.8603 12.5 13.0511 12.5 13.25C12.5 13.4489 12.421 13.6397 12.2803 13.7803C12.1397 13.921 11.9489 14 11.75 14H2.75C2.55109 14 2.36032 13.921 2.21967 13.7803C2.07902 13.6397 2 13.4489 2 13.25ZM4.46975 7.46975C4.6104 7.32915 4.80113 7.25016 5 7.25016C5.19887 7.25016 5.3896 7.32915 5.53025 7.46975L6.5 8.4395V2.75C6.5 2.55109 6.57902 2.36032 6.71967 2.21967C6.86032 2.07902 7.05109 2 7.25 2C7.44891 2 7.63968 2.07902 7.78033 2.21967C7.92098 2.36032 8 2.55109 8 2.75V8.4395L8.96975 7.46975C9.03893 7.39812 9.12169 7.34098 9.2132 7.30167C9.3047 7.26237 9.40311 7.24168 9.5027 7.24081C9.60228 7.23995 9.70104 7.25892 9.79321 7.29663C9.88539 7.33434 9.96913 7.39003 10.0395 7.46045C10.11 7.53087 10.1657 7.61461 10.2034 7.70678C10.2411 7.79896 10.2601 7.89772 10.2592 7.9973C10.2583 8.09689 10.2376 8.1953 10.1983 8.2868C10.159 8.37831 10.1019 8.46107 10.0302 8.53025L7.78025 10.7803C7.6396 10.9209 7.44887 10.9998 7.25 10.9998C7.05113 10.9998 6.8604 10.9209 6.71975 10.7803L4.46975 8.53025C4.32915 8.3896 4.25016 8.19887 4.25016 8C4.25016 7.80113 4.32915 7.6104 4.46975 7.46975Z" fill="white"/>
</svg>
