<svg width="20" height="16" viewBox="0 0 20 16" fill="none" xmlns="http://www.w3.org/2000/svg">
<g filter="url(#filter0_d_2035_3326)">
<path fill-rule="evenodd" clip-rule="evenodd" d="M11.2548 1.04854C11.2548 1.67356 10.7397 2.18024 10.1043 2.18024C9.5323 2.18024 9.05781 1.7697 8.96875 1.23184L2.15965 2.56876C0.863509 2.82324 0.0246387 4.07354 0.285976 5.36137L2.00806 13.8475C2.26939 15.1353 3.53198 15.973 4.82811 15.7185L11.9191 14.3263C11.8291 14.165 11.778 13.9798 11.778 13.7829C11.778 13.1579 12.2931 12.6512 12.9285 12.6512C13.564 12.6512 14.0791 13.1579 14.0791 13.7829C14.0791 13.8236 14.0769 13.8638 14.0726 13.9035L17.8384 13.1641C19.1345 12.9096 19.9734 11.6593 19.7121 10.3715L17.99 1.88533C17.7286 0.597499 16.4661 -0.240192 15.1699 0.0142943L11.2244 0.788966C11.2443 0.872318 11.2548 0.95922 11.2548 1.04854Z" fill="white"/>
<path d="M15.1318 -0.181641C16.5348 -0.456893 17.9022 0.449287 18.1855 1.8457L19.9082 10.332C20.1916 11.7294 19.2809 13.0847 17.877 13.3604L14.1113 14.0996C14.049 14.1119 13.9843 14.0937 13.9375 14.0508C13.8907 14.0078 13.8672 13.945 13.874 13.8818C13.8775 13.8495 13.8789 13.8166 13.8789 13.7832C13.8789 13.2718 13.4567 12.8517 12.9287 12.8516C12.4006 12.8516 11.9775 13.2717 11.9775 13.7832C11.9776 13.9448 12.0201 14.0963 12.0938 14.2285C12.1249 14.2844 12.1274 14.3521 12.1006 14.4102C12.0737 14.4681 12.0207 14.51 11.958 14.5225L4.86621 15.915C3.46345 16.1902 2.09609 15.2838 1.8125 13.8877L0.0898438 5.40137C-0.193755 4.00384 0.71705 2.64774 2.12109 2.37207L8.93066 1.03516L8.96973 1.03223C9.00983 1.03242 9.04955 1.04418 9.08301 1.06738C9.12737 1.0982 9.15719 1.14592 9.16602 1.19922C9.23897 1.63972 9.62957 1.98047 10.1045 1.98047C10.6324 1.98035 11.0545 1.56009 11.0547 1.04883C11.0547 0.975269 11.0466 0.903232 11.0303 0.834961C11.0177 0.782095 11.0273 0.726372 11.0566 0.680664C11.086 0.635132 11.1324 0.6033 11.1855 0.592773L15.1318 -0.181641Z" stroke="black" stroke-width="0.4" stroke-linejoin="round"/>
</g>
<path fill-rule="evenodd" clip-rule="evenodd" d="M17.7565 1.93203C17.5212 0.772602 16.3841 0.018205 15.2172 0.247318L11.4932 0.978498C11.4944 1.00159 11.495 1.02483 11.495 1.04818C11.495 1.80703 10.8703 2.41777 10.1053 2.41777C9.50277 2.41777 8.98797 2.03948 8.79585 1.50811L2.20697 2.80178C1.04083 3.03074 0.286323 4.15529 0.521449 5.31396L2.24353 13.8001C2.47881 14.9595 3.61585 15.7139 4.78276 15.4848L11.5899 14.1483C11.5572 14.0318 11.5398 13.9091 11.5398 13.7825C11.5398 13.0237 12.1644 12.413 12.9295 12.413C13.6372 12.413 14.2247 12.9355 14.3089 13.6144L17.793 12.9303C18.9592 12.7014 19.7137 11.5768 19.4785 10.4182L17.7565 1.93203ZM15.1246 -0.219437C16.5499 -0.499296 17.9381 0.421687 18.2255 1.83792L19.9475 10.3241C20.2351 11.7411 19.3118 13.1171 17.8857 13.3971L14.1199 14.1365C14.0453 14.1511 13.9682 14.1296 13.9121 14.0786C13.856 14.0275 13.8276 13.953 13.8357 13.8778C13.8391 13.8466 13.8408 13.8148 13.8408 13.7825C13.8408 13.2913 13.4353 12.8887 12.9295 12.8887C12.4237 12.8887 12.0182 13.2913 12.0182 13.7825C12.0182 13.938 12.0585 14.0836 12.1293 14.2106C12.1663 14.2771 12.1692 14.3572 12.137 14.4261C12.1048 14.4951 12.0414 14.5446 11.9664 14.5593L4.87543 15.9516C3.45007 16.2314 2.06194 15.3104 1.77455 13.8942L0.0524689 5.40807C-0.23508 3.99107 0.688157 2.61504 2.11429 2.33503L8.9234 0.998112C8.98693 0.985638 9.05284 0.999312 9.10606 1.03601C9.15927 1.07271 9.19525 1.1293 9.20578 1.19284C9.2758 1.61578 9.65039 1.94201 10.1053 1.94201C10.611 1.94201 11.0166 1.53939 11.0166 1.04818C11.0166 0.977502 11.0082 0.909026 10.9926 0.843527C10.9776 0.780615 10.989 0.714337 11.0242 0.659952C11.0593 0.605567 11.1153 0.56776 11.179 0.555235L15.1246 -0.219437Z" fill="black"/>
<path d="M13.3534 11.1834C12.6903 11.3203 12.3436 11.3163 12.3133 11.1713L10.8428 4.1274C10.7913 3.88101 10.8786 3.73449 11.1045 3.68786L13.0284 3.29068C14.1069 3.06802 14.9292 3.12883 15.4952 3.47309C16.0684 3.81586 16.4428 4.40756 16.6183 5.24819C16.7635 5.94389 16.6708 6.62825 16.34 7.30127C16.1746 7.63778 15.8914 7.93813 15.4905 8.20233C15.0895 8.46652 14.5976 8.65879 14.0146 8.77915L14.4208 10.7249C14.4389 10.8119 14.3133 10.9021 14.044 10.9955C13.7804 11.0801 13.5502 11.1428 13.3534 11.1834ZM13.2702 5.2137L13.6288 6.9312L13.7709 6.90186C14.0259 6.84921 14.2243 6.72511 14.3659 6.52958C14.5075 6.33404 14.5481 6.09133 14.4875 5.80146C14.427 5.51159 14.322 5.31784 14.1724 5.22022C14.03 5.12109 13.8058 5.10312 13.4998 5.16631L13.2702 5.2137Z" fill="black"/>
<path d="M7.02656 4.83336C7.06862 4.5979 7.5014 4.39517 8.32489 4.22516C8.53622 4.18154 8.79871 4.14624 9.11235 4.11929C9.43176 4.08359 9.5945 4.08023 9.60055 4.10922L8.52743 8.25396L11.2025 11.4548C11.2319 11.4866 11.0828 11.5551 10.7551 11.6606C10.426 11.7588 10.1448 11.8319 9.91156 11.8801C8.98605 12.0712 8.45385 12.0525 8.31497 11.8242L7.06168 9.91721L6.76541 12.2121C6.7349 12.4301 6.28968 12.6278 5.42976 12.8053C5.21842 12.849 4.95304 12.8886 4.63363 12.9243C4.31422 12.96 4.16379 12.9495 4.18235 12.8928L5.10243 8.77961L2.58269 5.558C2.55327 5.52628 2.69585 5.46283 3.01045 5.36765C3.33082 5.26371 3.60396 5.18842 3.82988 5.14179C4.7481 4.95223 5.27817 4.97886 5.42008 5.2217L6.55559 6.89219L7.02656 4.83336Z" fill="black"/>
<defs>
<filter id="filter0_d_2035_3326" x="-0.162109" y="-0.429688" width="20.3223" height="17.5938" filterUnits="userSpaceOnUse" color-interpolation-filters="sRGB">
<feFlood flood-opacity="0" result="BackgroundImageFix"/>
<feColorMatrix in="SourceAlpha" type="matrix" values="0 0 0 0 0 0 0 0 0 0 0 0 0 0 0 0 0 0 127 0" result="hardAlpha"/>
<feOffset dy="1"/>
<feComposite in2="hardAlpha" operator="out"/>
<feColorMatrix type="matrix" values="0 0 0 0 0 0 0 0 0 0 0 0 0 0 0 0 0 0 1 0"/>
<feBlend mode="normal" in2="BackgroundImageFix" result="effect1_dropShadow_2035_3326"/>
<feBlend mode="normal" in="SourceGraphic" in2="effect1_dropShadow_2035_3326" result="shape"/>
</filter>
</defs>
</svg>
