<svg width="25" height="25" viewBox="0 0 25 25" fill="none" xmlns="http://www.w3.org/2000/svg">
<g clip-path="url(#clip0_2035_9169)">
<path d="M6.67188 8.83594V7.83594C6.67188 6.24464 7.30402 4.71851 8.42923 3.5933C9.55445 2.46808 11.0806 1.83594 12.6719 1.83594C14.2632 1.83594 15.7893 2.46808 16.9145 3.5933C18.0397 4.71851 18.6719 6.24464 18.6719 7.83594V8.83594H20.6719C20.9371 8.83594 21.1914 8.94129 21.379 9.12883C21.5665 9.31637 21.6719 9.57072 21.6719 9.83594V21.8359C21.6719 22.1012 21.5665 22.3555 21.379 22.543C21.1914 22.7306 20.9371 22.8359 20.6719 22.8359H4.67188C4.40666 22.8359 4.1523 22.7306 3.96477 22.543C3.77723 22.3555 3.67188 22.1012 3.67188 21.8359V9.83594C3.67188 9.57072 3.77723 9.31637 3.96477 9.12883C4.1523 8.94129 4.40666 8.83594 4.67188 8.83594H6.67188ZM19.6719 10.8359H5.67188V20.8359H19.6719V10.8359ZM11.6719 16.5679C11.2906 16.3478 10.9926 16.008 10.8241 15.6013C10.6556 15.1945 10.6261 14.7435 10.74 14.3182C10.854 13.893 11.1051 13.5172 11.4544 13.2492C11.8036 12.9812 12.2316 12.8359 12.6719 12.8359C13.1121 12.8359 13.5401 12.9812 13.8894 13.2492C14.2387 13.5172 14.4898 13.893 14.6037 14.3182C14.7177 14.7435 14.6881 15.1945 14.5196 15.6013C14.3512 16.008 14.0532 16.3478 13.6719 16.5679V18.8359H11.6719V16.5679ZM8.67188 8.83594H16.6719V7.83594C16.6719 6.77507 16.2504 5.75766 15.5003 5.00751C14.7502 4.25736 13.7327 3.83594 12.6719 3.83594C11.611 3.83594 10.5936 4.25736 9.84345 5.00751C9.0933 5.75766 8.67188 6.77507 8.67188 7.83594V8.83594Z" fill="#FEFEFE"/>
</g>
<defs>
<clipPath id="clip0_2035_9169">
<rect width="24" height="24" fill="white" transform="translate(0.671875 0.835938)"/>
</clipPath>
</defs>
</svg>
