<svg width="25" height="25" viewBox="0 0 25 25" fill="none" xmlns="http://www.w3.org/2000/svg">
<g clip-path="url(#clip0_2035_9145)">
<path d="M20.6719 17.8359H22.6719V19.8359H2.67188V17.8359H4.67188V10.8359C4.67188 8.71421 5.51473 6.67937 7.01502 5.17908C8.51531 3.67879 10.5501 2.83594 12.6719 2.83594C14.7936 2.83594 16.8284 3.67879 18.3287 5.17908C19.829 6.67937 20.6719 8.71421 20.6719 10.8359V17.8359ZM18.6719 17.8359V10.8359C18.6719 9.24464 18.0397 7.71852 16.9145 6.5933C15.7893 5.46808 14.2632 4.83594 12.6719 4.83594C11.0806 4.83594 9.55445 5.46808 8.42923 6.5933C7.30402 7.71852 6.67188 9.24464 6.67188 10.8359V17.8359H18.6719ZM9.67188 21.8359H15.6719V23.8359H9.67188V21.8359Z" fill="#FEFEFE"/>
</g>
<defs>
<clipPath id="clip0_2035_9145">
<rect width="24" height="24" fill="white" transform="translate(0.671875 0.835938)"/>
</clipPath>
</defs>
</svg>
