<svg width="25" height="25" viewBox="0 0 25 25" fill="none" xmlns="http://www.w3.org/2000/svg">
<g clip-path="url(#clip0_2035_9149)">
<path d="M19.1719 10.8359L23.5719 21.8359H21.4169L20.2159 18.8359H16.1259L14.9269 21.8359H12.7729L17.1719 10.8359H19.1719ZM10.6719 2.83594V4.83594H16.6719V6.83594H14.7039C13.9325 9.15801 12.7014 11.301 11.0839 13.1369C11.8052 13.7805 12.5876 14.3523 13.4199 14.8439L12.6689 16.7219C11.5944 16.1125 10.5895 15.3879 9.67188 14.5609C7.88546 16.1777 5.76992 17.3881 3.47088 18.1089L2.93488 16.1799C4.90471 15.5518 6.7199 14.5153 8.26188 13.1379C7.12057 11.8459 6.16994 10.3972 5.43888 8.83594H7.67887C8.23623 9.8648 8.90454 10.8295 9.67188 11.7129C10.922 10.272 11.9072 8.62124 12.5819 6.83694L2.67188 6.83594V4.83594H8.67188V2.83594H10.6719ZM18.1719 13.7209L16.9249 16.8359H19.4169L18.1719 13.7209Z" fill="#FEFEFE"/>
</g>
<defs>
<clipPath id="clip0_2035_9149">
<rect width="24" height="24" fill="white" transform="translate(0.671875 0.835938)"/>
</clipPath>
</defs>
</svg>
