<svg width="25" height="25" viewBox="0 0 25 25" fill="none" xmlns="http://www.w3.org/2000/svg">
<g clip-path="url(#clip0_2035_9155)">
<path d="M19.6719 7.83594H24.6719V9.83594H19.6719V7.83594ZM17.6719 12.8359H24.6719V14.8359H17.6719V12.8359ZM20.6719 17.8359H24.6719V19.8359H20.6719V17.8359ZM2.67188 22.8359C2.67188 20.7142 3.51473 18.6794 5.01502 17.1791C6.51531 15.6788 8.55014 14.8359 10.6719 14.8359C12.7936 14.8359 14.8284 15.6788 16.3287 17.1791C17.829 18.6794 18.6719 20.7142 18.6719 22.8359H16.6719C16.6719 21.2446 16.0397 19.7185 14.9145 18.5933C13.7893 17.4681 12.2632 16.8359 10.6719 16.8359C9.08058 16.8359 7.55445 17.4681 6.42923 18.5933C5.30402 19.7185 4.67188 21.2446 4.67188 22.8359H2.67188ZM10.6719 13.8359C7.35687 13.8359 4.67188 11.1509 4.67188 7.83594C4.67188 4.52094 7.35687 1.83594 10.6719 1.83594C13.9869 1.83594 16.6719 4.52094 16.6719 7.83594C16.6719 11.1509 13.9869 13.8359 10.6719 13.8359ZM10.6719 11.8359C12.8819 11.8359 14.6719 10.0459 14.6719 7.83594C14.6719 5.62594 12.8819 3.83594 10.6719 3.83594C8.46187 3.83594 6.67188 5.62594 6.67188 7.83594C6.67188 10.0459 8.46187 11.8359 10.6719 11.8359Z" fill="#FEFEFE"/>
</g>
<defs>
<clipPath id="clip0_2035_9155">
<rect width="24" height="24" fill="white" transform="translate(0.671875 0.835938)"/>
</clipPath>
</defs>
</svg>
