<svg width="25" height="25" viewBox="0 0 25 25" fill="none" xmlns="http://www.w3.org/2000/svg">
<g clip-path="url(#clip0_2035_9182)">
<path d="M11.6719 2.83594C15.7399 2.83594 19.0979 5.87194 19.6059 9.80094L21.8559 13.3399C22.0039 13.5729 21.9739 13.9199 21.6309 14.0679L19.6719 14.9059V17.8359C19.6719 18.9409 18.7769 19.8359 17.6719 19.8359H15.6729L15.6719 22.8359H6.67188V19.1419C6.67188 17.9619 6.23588 16.8449 5.42788 15.8369C4.32888 14.4669 3.67188 12.7279 3.67188 10.8359C3.67188 6.41794 7.25387 2.83594 11.6719 2.83594ZM11.6719 4.83594C8.35787 4.83594 5.67188 7.52194 5.67188 10.8359C5.67188 12.2209 6.13987 13.5289 6.98787 14.5859C8.08187 15.9499 8.67188 17.5029 8.67188 19.1419V20.8359H13.6719L13.6739 17.8359H17.6719V13.5879L19.2219 12.9239L17.6789 10.4989L17.6219 10.0569C17.2379 7.08694 14.6959 4.83594 11.6719 4.83594ZM11.1419 8.59894L11.6719 9.12894L12.2019 8.59894C12.8859 7.91494 13.9939 7.91494 14.6769 8.59894C15.3609 9.28194 15.3609 10.3899 14.6769 11.0729L11.6719 14.0789L8.66687 11.0729C7.98287 10.3899 7.98287 9.28194 8.66687 8.59894C9.34987 7.91494 10.4579 7.91494 11.1419 8.59894Z" fill="#FEFEFE"/>
</g>
<defs>
<clipPath id="clip0_2035_9182">
<rect width="24" height="24" fill="white" transform="translate(0.671875 0.835938)"/>
</clipPath>
</defs>
</svg>
