<svg width="25" height="25" viewBox="0 0 25 25" fill="none" xmlns="http://www.w3.org/2000/svg">
<g clip-path="url(#clip0_2035_9178)">
<path d="M22.6719 19.8359V21.8359H20.6719V19.8359H4.67188V21.8359H2.67188V19.8359C2.40666 19.8359 2.1523 19.7306 1.96477 19.543C1.77723 19.3555 1.67188 19.1012 1.67188 18.8359V6.83594C1.67188 6.57072 1.77723 6.31637 1.96477 6.12883C2.1523 5.9413 2.40666 5.83594 2.67188 5.83594H13.1999C13.762 5.206 14.4511 4.70213 15.2219 4.35743C15.9926 4.01274 16.8276 3.83501 17.6719 3.83594C19.4489 3.83594 21.0459 4.60894 22.1439 5.83594H22.6719C22.9371 5.83594 23.1914 5.9413 23.379 6.12883C23.5665 6.31637 23.6719 6.57072 23.6719 6.83594V18.8359C23.6719 19.1012 23.5665 19.3555 23.379 19.543C23.1914 19.7306 22.9371 19.8359 22.6719 19.8359ZM12.0129 7.83594H3.67188V17.8359H21.6719V14.3079C20.679 15.1972 19.4183 15.7306 18.0887 15.8238C16.7591 15.9171 15.4362 15.565 14.3289 14.8231C13.2216 14.0811 12.3929 12.9916 11.9735 11.7264C11.5542 10.4612 11.568 9.09239 12.0129 7.83594ZM17.6719 13.8359C18.7327 13.8359 19.7502 13.4145 20.5003 12.6644C21.2504 11.9142 21.6719 10.8968 21.6719 9.83594C21.6719 8.77508 21.2504 7.75766 20.5003 7.00751C19.7502 6.25737 18.7327 5.83594 17.6719 5.83594C16.611 5.83594 15.5936 6.25737 14.8434 7.00751C14.0933 7.75766 13.6719 8.77508 13.6719 9.83594C13.6719 10.8968 14.0933 11.9142 14.8434 12.6644C15.5936 13.4145 16.611 13.8359 17.6719 13.8359ZM5.67188 13.8359H7.67188V15.8359H5.67188V13.8359ZM8.67188 13.8359H10.6719V15.8359H8.67188V13.8359Z" fill="#FEFEFE"/>
</g>
<defs>
<clipPath id="clip0_2035_9178">
<rect width="24" height="24" fill="white" transform="translate(0.671875 0.835938)"/>
</clipPath>
</defs>
</svg>
