<svg width="25" height="25" viewBox="0 0 25 25" fill="none" xmlns="http://www.w3.org/2000/svg">
<g clip-path="url(#clip0_2035_9162)">
<path d="M21.6719 3.83594C22.2239 3.83594 22.6719 4.28394 22.6719 4.83594V18.8359C22.6719 19.3879 22.2239 19.8359 21.6719 19.8359H7.12687L2.67188 23.3359V4.83594C2.67188 4.28394 3.11988 3.83594 3.67188 3.83594H21.6719ZM20.6719 5.83594H4.67188V19.2209L6.43488 17.8359H20.6719V5.83594ZM11.1869 8.24794L11.6339 8.93594C9.96587 9.83894 9.99487 11.2879 9.99487 11.5999C10.1499 11.5799 10.3129 11.5759 10.4749 11.5909C11.3769 11.6749 12.0879 12.4159 12.0879 13.3359C12.0879 14.3019 11.3039 15.0859 10.3379 15.0859C9.80088 15.0859 9.28787 14.8409 8.96387 14.4959C8.44887 13.9499 8.17188 13.3359 8.17188 12.3409C8.17188 10.5909 9.39988 9.02294 11.1869 8.24794ZM16.1869 8.24794L16.6339 8.93594C14.9659 9.83894 14.9949 11.2879 14.9949 11.5999C15.1499 11.5799 15.3129 11.5759 15.4749 11.5909C16.3769 11.6749 17.0879 12.4159 17.0879 13.3359C17.0879 14.3019 16.3039 15.0859 15.3379 15.0859C14.8009 15.0859 14.2879 14.8409 13.9639 14.4959C13.4489 13.9499 13.1719 13.3359 13.1719 12.3409C13.1719 10.5909 14.3999 9.02294 16.1869 8.24794Z" fill="#FEFEFE"/>
</g>
<defs>
<clipPath id="clip0_2035_9162">
<rect width="24" height="24" fill="white" transform="translate(0.671875 0.835938)"/>
</clipPath>
</defs>
</svg>
