<svg width="24" height="26" viewBox="0 0 24 26" fill="none" xmlns="http://www.w3.org/2000/svg">
<path d="M21.6923 2.39831H20.7692V1.9374C20.7692 1.17692 20.1461 0.554688 19.3846 0.554688C18.6231 0.554688 18 1.17692 18 1.9374V2.39831H18.9231V1.9374C18.9231 1.6839 19.1308 1.4765 19.3846 1.4765C19.6385 1.4765 19.8462 1.6839 19.8462 1.9374V2.39831H18.9231V3.78102C18.9231 4.03452 19.1308 4.24193 19.3846 4.24193C19.6385 4.24193 19.8462 4.44934 19.8462 4.70284C19.8462 4.95634 19.6385 5.16374 19.3846 5.16374C18.6231 5.16374 18 4.54151 18 3.78102V2.39831H13.3846V1.9374C13.3846 1.17692 12.7615 0.554688 12 0.554688C11.2385 0.554688 10.6154 1.17692 10.6154 1.9374V2.39831H11.5385V1.9374C11.5385 1.6839 11.7462 1.4765 12 1.4765C12.2538 1.4765 12.4615 1.6839 12.4615 1.9374V2.39831H11.5385V3.78102C11.5385 4.03452 11.7462 4.24193 12 4.24193C12.2538 4.24193 12.4615 4.44934 12.4615 4.70284C12.4615 4.95634 12.2538 5.16374 12 5.16374C11.2385 5.16374 10.6154 4.54151 10.6154 3.78102V2.39831H6V1.9374C6 1.17692 5.37692 0.554688 4.61538 0.554688C3.85385 0.554688 3.23077 1.17692 3.23077 1.9374V2.39831H4.15385V1.9374C4.15385 1.6839 4.36154 1.4765 4.61538 1.4765C4.86923 1.4765 5.07692 1.6839 5.07692 1.9374V2.39831H4.15385V3.78102C4.15385 4.03452 4.36154 4.24193 4.61538 4.24193C4.86923 4.24193 5.07692 4.44934 5.07692 4.70284C5.07692 4.95634 4.86923 5.16374 4.61538 5.16374C3.85385 5.16374 3.23077 4.54151 3.23077 3.78102V2.39831H2.30769C1.03385 2.39831 0 3.43074 0 4.70284V23.139C0 24.4111 1.03385 25.4436 2.30769 25.4436H21.6923C22.9662 25.4436 24 24.4111 24 23.139V4.70284C24 3.43074 22.9662 2.39831 21.6923 2.39831ZM18.4614 21.1065V18.53C18.4614 17.7695 19.0845 17.1473 19.846 17.1473H22.426L18.4614 21.1065ZM19.846 16.2255C18.5722 16.2255 17.5383 17.2579 17.5383 18.53V21.7565H0.922929V7.92932H23.0768V16.2256L19.846 16.2255Z" fill="#756F83"/>
</svg>
