<svg width="40" height="40" viewBox="0 0 40 40" fill="none" xmlns="http://www.w3.org/2000/svg">
<path d="M0 0L32 0C36.4183 0 40 3.58172 40 8V40H8C3.58172 40 0 36.4183 0 32L0 0Z" fill="#653753"/>
<path fill-rule="evenodd" clip-rule="evenodd" d="M32.6 19.8C32.6 23.1948 31.2514 26.4505 28.851 28.851C26.4505 31.2514 23.1948 32.6 19.8 32.6C16.4052 32.6 13.1495 31.2514 10.749 28.851C8.34857 26.4505 7 23.1948 7 19.8C7 16.4052 8.34857 13.1495 10.749 10.749C13.1495 8.34857 16.4052 7 19.8 7C23.1948 7 26.4505 8.34857 28.851 10.749C31.2514 13.1495 32.6 16.4052 32.6 19.8ZM21.4 13.4C21.4 13.8243 21.2314 14.2313 20.9314 14.5314C20.6313 14.8314 20.2243 15 19.8 15C19.3757 15 18.9687 14.8314 18.6686 14.5314C18.3686 14.2313 18.2 13.8243 18.2 13.4C18.2 12.9757 18.3686 12.5687 18.6686 12.2686C18.9687 11.9686 19.3757 11.8 19.8 11.8C20.2243 11.8 20.6313 11.9686 20.9314 12.2686C21.2314 12.5687 21.4 12.9757 21.4 13.4ZM18.2 18.2C17.7757 18.2 17.3687 18.3686 17.0686 18.6686C16.7686 18.9687 16.6 19.3757 16.6 19.8C16.6 20.2243 16.7686 20.6313 17.0686 20.9314C17.3687 21.2314 17.7757 21.4 18.2 21.4V26.2C18.2 26.6243 18.3686 27.0313 18.6686 27.3314C18.9687 27.6314 19.3757 27.8 19.8 27.8H21.4C21.8243 27.8 22.2313 27.6314 22.5314 27.3314C22.8314 27.0313 23 26.6243 23 26.2C23 25.7757 22.8314 25.3687 22.5314 25.0686C22.2313 24.7686 21.8243 24.6 21.4 24.6V19.8C21.4 19.3757 21.2314 18.9687 20.9314 18.6686C20.6313 18.3686 20.2243 18.2 19.8 18.2H18.2Z" fill="white" fill-opacity="0.6"/>
</svg>
