<svg width="40" height="33" viewBox="0 0 40 33" fill="none" xmlns="http://www.w3.org/2000/svg">
<g filter="url(#filter0_d_4001_8063)">
<path fill-rule="evenodd" clip-rule="evenodd" d="M22.5106 3.02178C22.5106 4.23276 21.4804 5.21446 20.2095 5.21446C19.0656 5.21446 18.1166 4.41902 17.9385 3.37693L4.32027 5.9672C1.728 6.46027 0.050254 8.88271 0.572929 11.3779L4.01709 27.8198C4.53976 30.3149 7.06493 31.938 9.6572 31.4449L23.8391 28.7474C23.6592 28.4349 23.557 28.0761 23.557 27.6946C23.557 26.4836 24.5872 25.5019 25.858 25.5019C27.1289 25.5019 28.1591 26.4836 28.1591 27.6946C28.1591 27.7735 28.1547 27.8514 28.1462 27.9282L35.6778 26.4956C38.27 26.0026 39.9478 23.5801 39.4251 21.0849L35.9809 4.64306C35.4583 2.14789 32.9331 0.524863 30.3408 1.01793L22.4498 2.51886C22.4895 2.68035 22.5106 2.84872 22.5106 3.02178Z" fill="white"/>
<path d="M30.3037 0.821289C32.9967 0.309218 35.6305 1.99463 36.1768 4.60254L39.6211 21.0439C40.168 23.6551 38.4104 26.1797 35.7148 26.6924L28.1836 28.125C28.1214 28.1368 28.0573 28.1181 28.0107 28.0752C27.9642 28.0321 27.9403 27.9693 27.9473 27.9062C27.955 27.8368 27.959 27.7658 27.959 27.6943C27.9588 26.603 27.0277 25.7023 25.8584 25.7021C24.6889 25.7021 23.757 26.6029 23.7568 27.6943C23.7568 28.0396 23.8497 28.3642 24.0127 28.6475C24.045 28.7036 24.0475 28.7722 24.0205 28.8311C23.9935 28.8897 23.9395 28.9323 23.876 28.9443L9.69434 31.6416C7.00133 32.1537 4.36758 30.4683 3.82129 27.8604L0.376953 11.4189C-0.170024 8.80776 1.58762 6.28323 4.2832 5.77051L17.9014 3.18066L17.9404 3.17676C17.9802 3.17715 18.0195 3.18985 18.0527 3.21289C18.0966 3.24343 18.1266 3.29013 18.1357 3.34277C18.2965 4.28358 19.1581 5.01465 20.21 5.01465C21.3793 5.01442 22.3105 4.11289 22.3105 3.02148C22.3105 2.86481 22.2918 2.71231 22.2559 2.56641C22.2428 2.51328 22.2518 2.45722 22.2812 2.41113C22.3109 2.365 22.3583 2.33258 22.4121 2.32227L30.3037 0.821289Z" stroke="black" stroke-width="0.4" stroke-linejoin="round"/>
</g>
<path fill-rule="evenodd" clip-rule="evenodd" d="M35.5129 4.73818C35.0424 2.49179 32.7683 1.03015 30.4345 1.47405L22.9865 2.89071C22.9888 2.93546 22.99 2.98048 22.99 3.02573C22.99 4.49599 21.7406 5.67931 20.2105 5.67931C19.0055 5.67931 17.9759 4.94637 17.5917 3.91683L4.41393 6.42332C2.08165 6.86694 0.572646 9.04575 1.0429 11.2907L4.48706 27.7326C4.95762 29.979 7.23171 31.4406 9.56552 30.9967L23.1799 28.4072C23.1145 28.1814 23.0795 27.9437 23.0795 27.6985C23.0795 26.2283 24.3289 25.045 25.859 25.045C27.2744 25.045 28.4495 26.0574 28.6178 27.3728L35.5861 26.0474C37.9183 25.6038 39.4274 23.425 38.9571 21.1801L35.5129 4.73818ZM30.2491 0.569714C33.0999 0.0274869 35.8761 1.81189 36.4509 4.55584L39.8951 20.9977C40.4702 23.7432 38.6237 26.4092 35.7714 26.9518L28.2399 28.3843C28.0907 28.4127 27.9363 28.371 27.8241 28.2721C27.712 28.1732 27.6553 28.0288 27.6715 27.8831C27.6782 27.8226 27.6817 27.761 27.6817 27.6985C27.6817 26.7468 26.8706 25.9668 25.859 25.9668C24.8475 25.9668 24.0364 26.7468 24.0364 27.6985C24.0364 27.9997 24.1169 28.2819 24.2585 28.5279C24.3327 28.6567 24.3384 28.8119 24.274 28.9455C24.2096 29.0791 24.0828 29.175 23.9328 29.2035L9.75087 31.901C6.90014 32.4433 4.12388 30.6588 3.5491 27.9149L0.104938 11.473C-0.470159 8.72758 1.37631 6.0615 4.22858 5.51898L17.8468 2.92872C17.9739 2.90455 18.1057 2.93104 18.2121 3.00215C18.3185 3.07325 18.3905 3.18289 18.4116 3.306C18.5516 4.12544 19.3008 4.75751 20.2105 4.75751C21.222 4.75751 22.0331 3.97744 22.0331 3.02573C22.0331 2.88878 22.0165 2.75611 21.9852 2.62921C21.9552 2.50731 21.978 2.3789 22.0483 2.27353C22.1187 2.16816 22.2305 2.09491 22.3581 2.07064L30.2491 0.569714Z" fill="black"/>
<path d="M26.7059 22.6605C25.3796 22.9257 24.6862 22.9179 24.6256 22.6371L21.6846 8.98952C21.5817 8.51213 21.7562 8.22826 22.208 8.1379L26.0558 7.36837C28.2129 6.93697 29.8574 7.05478 30.9894 7.7218C32.1359 8.3859 32.8847 9.53232 33.2356 11.161C33.5261 12.509 33.3406 13.8349 32.679 15.1389C32.3482 15.7909 31.7818 16.3728 30.98 16.8847C30.1781 17.3966 29.1941 17.7691 28.0281 18.0023L28.8406 21.7722C28.8769 21.9407 28.6257 22.1154 28.0869 22.2964C27.5598 22.4604 27.0994 22.5818 26.7059 22.6605ZM26.5395 11.0942L27.2566 14.4219L27.5408 14.365C28.0509 14.263 28.4476 14.0226 28.7308 13.6437C29.014 13.2649 29.0952 12.7946 28.9741 12.233C28.8531 11.6714 28.643 11.296 28.3438 11.1068C28.0591 10.9148 27.6107 10.88 26.9986 11.0024L26.5395 11.0942Z" fill="black"/>
<path d="M14.0531 10.3627C14.1372 9.90647 15.0028 9.51368 16.6498 9.1843C17.0724 9.09977 17.5974 9.0314 18.2247 8.97917C18.8635 8.91 19.189 8.90349 19.2011 8.95965L17.0549 16.9901L22.4049 23.1918C22.4638 23.2533 22.1656 23.3861 21.5102 23.5904C20.8519 23.7807 20.2895 23.9224 19.8231 24.0157C17.9721 24.3859 16.9077 24.3498 16.6299 23.9074L14.1234 20.2126L13.5308 24.659C13.4698 25.0813 12.5794 25.4644 10.8595 25.8084C10.4368 25.8929 9.90609 25.9697 9.26726 26.0389C8.62843 26.1081 8.32758 26.0877 8.3647 25.9778L10.2049 18.0085L5.16538 11.7667C5.10653 11.7052 5.3917 11.5823 6.0209 11.3979C6.66164 11.1965 7.20793 11.0506 7.65975 10.9603C9.4962 10.593 10.5563 10.6446 10.8402 11.1151L13.1112 14.3517L14.0531 10.3627Z" fill="black"/>
<defs>
<filter id="filter0_d_4001_8063" x="0.0771484" y="0.53125" width="39.8438" height="32.4023" filterUnits="userSpaceOnUse" color-interpolation-filters="sRGB">
<feFlood flood-opacity="0" result="BackgroundImageFix"/>
<feColorMatrix in="SourceAlpha" type="matrix" values="0 0 0 0 0 0 0 0 0 0 0 0 0 0 0 0 0 0 127 0" result="hardAlpha"/>
<feOffset dy="1"/>
<feComposite in2="hardAlpha" operator="out"/>
<feColorMatrix type="matrix" values="0 0 0 0 0 0 0 0 0 0 0 0 0 0 0 0 0 0 1 0"/>
<feBlend mode="normal" in2="BackgroundImageFix" result="effect1_dropShadow_4001_8063"/>
<feBlend mode="normal" in="SourceGraphic" in2="effect1_dropShadow_4001_8063" result="shape"/>
</filter>
</defs>
</svg>
