<svg width="35" height="46" viewBox="0 0 35 46" fill="none" xmlns="http://www.w3.org/2000/svg">
<path d="M15.7734 2.97461L17.2344 7.16016L17.6621 6.21875L17.9883 5.50098L18.5928 6.00586C28.1963 14.0126 32.0832 19.1262 33.8711 27.0244C35.5491 34.4375 30.3311 41.4697 23.4961 44.1406C20.0565 45.4847 16.1603 45.7517 12.4453 44.4072C8.72447 43.0606 5.24208 40.1186 2.60059 35.1484L2.5918 35.1318L2.58398 35.1152C1.08159 31.8062 1.1412 28.1035 2.02441 24.4648C2.90782 20.8256 4.62699 17.2002 6.50977 13.9971C8.39448 10.7907 10.4572 7.98516 12.0469 5.98242C12.8423 4.98036 13.5207 4.177 14.001 3.62402C14.2408 3.34784 14.4314 3.13384 14.5625 2.98828C14.628 2.91561 14.6793 2.86 14.7139 2.82227C14.7312 2.8034 14.7439 2.78813 14.7529 2.77832L14.7676 2.76367C14.7693 2.76497 14.7876 2.78159 14.9951 2.97461L14.7676 2.7627L15.4453 2.03516L15.7734 2.97461Z" fill="black" stroke="black" stroke-width="1.2"/>
</svg>
