<svg width="33" height="46" viewBox="0 0 33 46" fill="none" xmlns="http://www.w3.org/2000/svg">
<path d="M14.5469 2.8125L15.8945 6.90625L16.2588 6.05859L16.5859 5.2959L17.208 5.84473C26.2777 13.8552 29.9438 18.9695 31.6299 26.8604C33.2078 34.2456 28.3036 41.283 21.8252 43.9648C18.5666 45.3138 14.871 45.5823 11.3477 44.2314C7.82088 42.8793 4.53248 39.93 2.04102 34.9639L2.0332 34.9482L2.02539 34.9316C0.610078 31.6294 0.666293 27.9351 1.49902 24.3008C2.33211 20.6651 3.95325 17.0419 5.73047 13.8389C7.5095 10.6326 9.45618 7.82624 10.957 5.82324C11.7078 4.82129 12.3484 4.01887 12.8018 3.46582C13.0285 3.18926 13.2091 2.97475 13.333 2.8291C13.3946 2.75662 13.442 2.70081 13.4746 2.66309C13.4909 2.6443 13.5041 2.62994 13.5127 2.62012C13.517 2.61521 13.5202 2.61101 13.5225 2.6084C13.5236 2.60711 13.5248 2.60619 13.5254 2.60547V2.60449L13.5264 2.60352L14.2188 1.81543L14.5469 2.8125Z" fill="#FF4D40" stroke="black" stroke-width="1.2"/>
</svg>
