<svg width="19" height="16" viewBox="0 0 19 16" fill="none" xmlns="http://www.w3.org/2000/svg">
<g filter="url(#filter0_d_3212_8420)">
<path fill-rule="evenodd" clip-rule="evenodd" d="M10.6913 1.48105C10.6913 2.06701 10.2019 2.54202 9.59827 2.54202C9.0549 2.54202 8.60414 2.15714 8.51953 1.6529L2.05088 2.90626C0.819553 3.14484 0.0226255 4.31699 0.270896 5.52433L1.90687 13.4801C2.15514 14.6874 3.3546 15.4728 4.58593 15.2342L11.3223 13.9289C11.2369 13.7777 11.1883 13.6041 11.1883 13.4195C11.1883 12.8336 11.6777 12.3585 12.2813 12.3585C12.885 12.3585 13.3743 12.8336 13.3743 13.4195C13.3743 13.4577 13.3722 13.4954 13.3682 13.5325L16.9457 12.8394C18.177 12.6008 18.9739 11.4286 18.7257 10.2213L17.0897 2.26554C16.8414 1.0582 15.642 0.272867 14.4106 0.511448L10.6624 1.2377C10.6813 1.31585 10.6913 1.39732 10.6913 1.48105Z" fill="white"/>
<path d="M14.373 0.31543C15.7086 0.056852 17.0142 0.907902 17.2852 2.22559L18.9219 10.1807C19.1932 11.5003 18.3208 12.777 16.9834 13.0361L13.4062 13.7285C13.3439 13.7406 13.2792 13.7227 13.2324 13.6797C13.1858 13.6367 13.1621 13.5738 13.1689 13.5107C13.1722 13.4809 13.1748 13.4507 13.1748 13.4199C13.1748 12.95 12.7801 12.5586 12.2812 12.5586C11.7824 12.5586 11.3887 12.95 11.3887 13.4199C11.3887 13.5686 11.4273 13.7081 11.4961 13.8301C11.5277 13.8861 11.5308 13.9543 11.5039 14.0127C11.4769 14.0711 11.4235 14.1128 11.3604 14.125L4.62402 15.4307C3.28835 15.6895 1.98198 14.8382 1.71094 13.5205L0.0751953 5.56445C-0.196089 4.24488 0.67546 2.96914 2.0127 2.70996L8.48145 1.45703L8.52148 1.45312C8.56126 1.45351 8.6006 1.46526 8.63379 1.48828C8.67807 1.51902 8.70788 1.56695 8.7168 1.62012C8.78492 2.02521 9.15033 2.3418 9.59863 2.3418C10.0972 2.34161 10.491 1.95109 10.4912 1.48145C10.4912 1.41382 10.4829 1.34793 10.4678 1.28516C10.455 1.23213 10.4647 1.17581 10.4941 1.12988C10.5236 1.08399 10.5705 1.05146 10.624 1.04102L14.373 0.31543Z" stroke="black" stroke-width="0.4" stroke-linejoin="round"/>
</g>
<path fill-rule="evenodd" clip-rule="evenodd" d="M16.8686 2.31006C16.6451 1.22309 15.5649 0.515846 14.4564 0.73064L10.9186 1.41612C10.9197 1.43777 10.9202 1.45956 10.9202 1.48145C10.9202 2.19287 10.3268 2.76544 9.59999 2.76544C9.02763 2.76544 8.53857 2.41079 8.35605 1.91263L2.09662 3.12545C0.988786 3.3401 0.272007 4.39437 0.495377 5.48062L2.13135 13.4364C2.35487 14.5233 3.43506 15.2306 4.54362 15.0158L11.0104 13.7628C10.9794 13.6535 10.9628 13.5385 10.9628 13.4199C10.9628 12.7085 11.5562 12.1359 12.283 12.1359C12.9553 12.1359 13.5135 12.6258 13.5935 13.2623L16.9034 12.621C18.0112 12.4063 18.728 11.3521 18.5046 10.2658L16.8686 2.31006ZM14.3683 0.293057C15.7224 0.0306892 17.0412 0.894111 17.3142 2.22183L18.9502 10.1776C19.2233 11.506 18.3463 12.7961 16.9914 13.0586L13.4139 13.7517C13.3431 13.7655 13.2698 13.7453 13.2165 13.6974C13.1632 13.6496 13.1363 13.5797 13.1439 13.5092C13.1471 13.4799 13.1488 13.4501 13.1488 13.4199C13.1488 12.9594 12.7635 12.582 12.283 12.582C11.8026 12.582 11.4173 12.9594 11.4173 13.4199C11.4173 13.5657 11.4555 13.7022 11.5228 13.8212C11.558 13.8835 11.5607 13.9586 11.5301 14.0233C11.4996 14.0879 11.4393 14.1343 11.3681 14.1481L4.63166 15.4534C3.27756 15.7157 1.95884 14.8523 1.68582 13.5246L0.0498455 5.56884C-0.223326 4.24041 0.653749 2.95038 2.00858 2.68787L8.47723 1.43451C8.53759 1.42281 8.6002 1.43563 8.65075 1.47004C8.70131 1.50445 8.73549 1.5575 8.74549 1.61707C8.81201 2.01357 9.16787 2.31941 9.59999 2.31941C10.0805 2.31941 10.4657 1.94196 10.4657 1.48145C10.4657 1.41519 10.4578 1.35099 10.443 1.28959C10.4287 1.23061 10.4396 1.16847 10.473 1.11748C10.5064 1.0665 10.5595 1.03105 10.6201 1.01931L14.3683 0.293057Z" fill="black"/>
<path d="M12.684 10.981C12.054 11.1093 11.7246 11.1056 11.6959 10.9697L10.2989 4.36602C10.25 4.13503 10.3329 3.99767 10.5475 3.95395L12.3752 3.5816C13.3998 3.37285 14.181 3.42986 14.7187 3.75261C15.2633 4.07395 15.6189 4.62867 15.7856 5.41676C15.9236 6.06898 15.8355 6.71056 15.5212 7.34152C15.3641 7.657 15.0951 7.93858 14.7142 8.18626C14.3333 8.43394 13.8659 8.6142 13.3121 8.72703L13.698 10.5512C13.7152 10.6327 13.5959 10.7173 13.34 10.8048C13.0896 10.8842 12.8709 10.9429 12.684 10.981ZM12.6049 5.38443L12.9456 6.99458L13.0806 6.96708C13.3229 6.91772 13.5113 6.80137 13.6458 6.61806C13.7804 6.43474 13.8189 6.20721 13.7614 5.93545C13.7039 5.66369 13.6041 5.48206 13.462 5.39054C13.3268 5.29761 13.1138 5.28076 12.823 5.34L12.6049 5.38443Z" fill="black"/>
<path d="M6.67474 5.02932C6.7147 4.80858 7.12584 4.61852 7.90815 4.45914C8.10892 4.41824 8.35829 4.38515 8.65624 4.35988C8.95969 4.32641 9.11428 4.32326 9.12003 4.35044L8.10057 8.23614L10.6419 11.237C10.6698 11.2667 10.5282 11.331 10.2169 11.4298C9.90417 11.5219 9.63704 11.5905 9.4155 11.6356C8.53626 11.8147 8.03067 11.7973 7.89873 11.5832L6.70811 9.79543L6.42666 11.9469C6.39767 12.1512 5.97471 12.3366 5.15778 12.503C4.95701 12.5439 4.7049 12.5811 4.40146 12.6146C4.09802 12.6481 3.95511 12.6382 3.97274 12.585L4.84682 8.72893L2.45307 5.70867C2.42511 5.67894 2.56057 5.61945 2.85944 5.53021C3.16379 5.43278 3.42328 5.3622 3.63789 5.31847C4.51021 5.14076 5.01377 5.16573 5.14859 5.39339L6.22732 6.95947L6.67474 5.02932Z" fill="black"/>
<defs>
<filter id="filter0_d_3212_8420" x="-0.174805" y="0.0703125" width="19.3457" height="16.6055" filterUnits="userSpaceOnUse" color-interpolation-filters="sRGB">
<feFlood flood-opacity="0" result="BackgroundImageFix"/>
<feColorMatrix in="SourceAlpha" type="matrix" values="0 0 0 0 0 0 0 0 0 0 0 0 0 0 0 0 0 0 127 0" result="hardAlpha"/>
<feOffset dy="1"/>
<feComposite in2="hardAlpha" operator="out"/>
<feColorMatrix type="matrix" values="0 0 0 0 0 0 0 0 0 0 0 0 0 0 0 0 0 0 1 0"/>
<feBlend mode="normal" in2="BackgroundImageFix" result="effect1_dropShadow_3212_8420"/>
<feBlend mode="normal" in="SourceGraphic" in2="effect1_dropShadow_3212_8420" result="shape"/>
</filter>
</defs>
</svg>
