<svg width="375" height="44" viewBox="0 0 375 44" fill="none" xmlns="http://www.w3.org/2000/svg">
<g clip-path="url(#clip0_3924_930)">
<path opacity="0.35" d="M338.667 17.8359H355.333C356.53 17.8359 357.5 18.8063 357.5 20.0029V26.0029C357.5 27.1994 356.53 28.1689 355.333 28.1689H338.667C337.47 28.1689 336.5 27.1994 336.5 26.0029V20.0029L336.511 19.7812C336.622 18.6886 337.545 17.8359 338.667 17.8359Z" stroke="#F4F3FC"/>
<path opacity="0.4" d="M359 21.0039V25.0039C359.805 24.6651 360.328 23.877 360.328 23.0039C360.328 22.1308 359.805 21.3427 359 21.0039Z" fill="#F4F3FC"/>
<path d="M338 20.6693C338 19.9329 338.597 19.3359 339.333 19.3359H354.667C355.403 19.3359 356 19.9329 356 20.6693V25.3359C356 26.0723 355.403 26.6693 354.667 26.6693H339.333C338.597 26.6693 338 26.0723 338 25.3359V20.6693Z" fill="#F4F3FC"/>
<path fill-rule="evenodd" clip-rule="evenodd" d="M323.33 19.6094C325.546 19.6095 327.677 20.4609 329.283 21.9877C329.404 22.1056 329.597 22.1041 329.716 21.9844L330.872 20.8177C330.933 20.757 330.966 20.6747 330.966 20.5891C330.965 20.5036 330.931 20.4217 330.87 20.3617C326.655 16.3221 320.005 16.3221 315.79 20.3617C315.729 20.4217 315.694 20.5035 315.693 20.5891C315.693 20.6746 315.726 20.7569 315.787 20.8177L316.943 21.9844C317.062 22.1043 317.255 22.1057 317.376 21.9877C318.982 20.4608 321.114 19.6094 323.33 19.6094ZM323.33 23.405C324.547 23.4049 325.721 23.8575 326.624 24.6747C326.746 24.7907 326.938 24.7882 327.057 24.669L328.212 23.5024C328.273 23.4412 328.307 23.3581 328.306 23.2719C328.305 23.1856 328.269 23.1033 328.207 23.0434C325.459 20.487 321.203 20.487 318.455 23.0434C318.393 23.1033 318.357 23.1857 318.357 23.272C318.356 23.3582 318.39 23.4413 318.451 23.5024L319.605 24.669C319.724 24.7882 319.916 24.7907 320.038 24.6747C320.94 23.858 322.113 23.4055 323.33 23.405ZM325.643 25.9588C325.645 26.0454 325.611 26.1288 325.549 26.1894L323.552 28.205C323.493 28.2643 323.413 28.2976 323.33 28.2976C323.247 28.2976 323.167 28.2643 323.108 28.205L321.111 26.1894C321.049 26.1287 321.015 26.0453 321.017 25.9588C321.019 25.8723 321.056 25.7903 321.12 25.7324C322.396 24.6535 324.264 24.6535 325.54 25.7324C325.604 25.7904 325.641 25.8723 325.643 25.9588Z" fill="#F4F3FC"/>
<path fill-rule="evenodd" clip-rule="evenodd" d="M309.666 17.668H308.666C308.114 17.668 307.666 18.1157 307.666 18.668V27.3346C307.666 27.8869 308.114 28.3346 308.666 28.3346H309.666C310.218 28.3346 310.666 27.8869 310.666 27.3346V18.668C310.666 18.1157 310.218 17.668 309.666 17.668ZM303.999 20.0013H304.999C305.552 20.0013 305.999 20.449 305.999 21.0013V27.3346C305.999 27.8869 305.552 28.3346 304.999 28.3346H303.999C303.447 28.3346 302.999 27.8869 302.999 27.3346V21.0013C302.999 20.449 303.447 20.0013 303.999 20.0013ZM300.333 22.3346H299.333C298.78 22.3346 298.333 22.7824 298.333 23.3346V27.3346C298.333 27.8869 298.78 28.3346 299.333 28.3346H300.333C300.885 28.3346 301.333 27.8869 301.333 27.3346V23.3346C301.333 22.7824 300.885 22.3346 300.333 22.3346ZM295.666 24.3346H294.666C294.114 24.3346 293.666 24.7824 293.666 25.3346V27.3346C293.666 27.8869 294.114 28.3346 294.666 28.3346H295.666C296.218 28.3346 296.666 27.8869 296.666 27.3346V25.3346C296.666 24.7824 296.218 24.3346 295.666 24.3346Z" fill="#F4F3FC"/>
<path d="M37.3203 28.2568C40.0083 28.2568 41.605 26.1548 41.605 22.5952C41.605 21.2549 41.3486 20.127 40.8579 19.2554C40.1475 17.9004 38.9243 17.168 37.3789 17.168C35.0791 17.168 33.4531 18.7134 33.4531 20.8813C33.4531 22.9175 34.918 24.397 36.9321 24.397C38.1699 24.397 39.1733 23.8184 39.6714 22.8149H39.6934C39.6934 22.8149 39.7227 22.8149 39.73 22.8149C39.7446 22.8149 39.7959 22.8149 39.7959 22.8149C39.7959 25.2319 38.8804 26.6748 37.335 26.6748C36.4268 26.6748 35.7236 26.1768 35.4819 25.3784H33.5996C33.9146 27.1143 35.3867 28.2568 37.3203 28.2568ZM37.3862 22.8955C36.1704 22.8955 35.3062 22.0312 35.3062 20.8228C35.3062 19.6436 36.2144 18.7427 37.3936 18.7427C38.5728 18.7427 39.481 19.6582 39.481 20.8521C39.481 22.0312 38.5947 22.8955 37.3862 22.8955Z" fill="#F4F3FC"/>
<path d="M44.6961 28.1543C45.3919 28.1543 45.868 27.6562 45.868 26.9971C45.868 26.3306 45.3919 25.8398 44.6961 25.8398C44.0076 25.8398 43.5242 26.3306 43.5242 26.9971C43.5242 27.6562 44.0076 28.1543 44.6961 28.1543ZM44.6961 22.6611C45.3919 22.6611 45.868 22.1704 45.868 21.5112C45.868 20.8447 45.3919 20.354 44.6961 20.354C44.0076 20.354 43.5242 20.8447 43.5242 21.5112C43.5242 22.1704 44.0076 22.6611 44.6961 22.6611Z" fill="#F4F3FC"/>
<path d="M52.7237 28.0005H54.5328V26.0303H55.961V24.4336H54.5328V17.4316H51.8668C49.9991 20.2441 48.5123 22.5952 47.5602 24.3457V26.0303H52.7237V28.0005ZM49.3106 24.3677C50.5411 22.1997 51.6397 20.4639 52.6505 18.9697H52.753V24.4775H49.3106V24.3677Z" fill="#F4F3FC"/>
<path d="M59.9896 28.0005H61.8793V17.4316H59.997L57.2357 19.3652V21.1816L59.8651 19.3359H59.9896V28.0005Z" fill="#F4F3FC"/>
</g>
<defs>
<clipPath id="clip0_3924_930">
<rect width="375" height="44" fill="white"/>
</clipPath>
</defs>
</svg>
