<svg width="36" height="17" viewBox="0 0 36 17" fill="none" xmlns="http://www.w3.org/2000/svg">
<path d="M14.8701 1.79486H21.2966C21.418 1.34696 21.6772 0.446257 21.8085 0H14.3601C14.4848 0.447895 14.7391 1.3486 14.872 1.79486H14.8701Z" fill="#8B92DF"/>
<path d="M27.3396 0H23.5891L22.9246 2.34284C22.7179 3.07949 22.0354 3.58976 21.2741 3.58976H14.7229C12.8755 3.57335 12.8886 1.30924 12.4079 0H8.65737C4.16036 0 0.5 3.66195 0.5 8.15737C0.723129 17.8667 14.3207 19.3564 16.6178 9.93421H19.3822C21.7037 19.3613 35.2556 17.8799 35.5 8.15737C35.5 3.66204 31.838 0 27.3426 0H27.3396ZM23.8942 8.15737C23.9156 6.92524 25.7515 6.93507 25.7695 8.15737C25.7482 9.39114 23.9172 9.39933 23.8942 8.15737ZM26.3979 10.6709C26.4192 9.43217 28.2616 9.43217 28.283 10.6709C28.2649 11.8981 26.4159 11.8981 26.3979 10.6709ZM26.3979 5.65388C26.4192 4.41519 28.2616 4.41519 28.283 5.65388C28.26 6.87946 26.4208 6.87946 26.3979 5.65388ZM29.8531 9.10087C28.6177 9.07954 28.6111 7.24201 29.8531 7.22563C31.0836 7.24532 31.0754 9.07794 29.8531 9.10087ZM16.3293 5.86061H19.668C20.8493 5.87865 20.8493 7.644 19.668 7.65546H16.3293C15.1497 7.64398 15.1464 5.87862 16.3293 5.86061ZM12.6854 8.15754C12.6854 8.65957 12.2818 9.05497 11.788 9.05497H9.55341V11.2895C9.55341 11.7834 9.14981 12.187 8.65598 12.187C8.16214 12.187 7.75856 11.7834 7.75856 11.2895V9.05497H5.53218C5.03015 9.05497 4.63476 8.65957 4.63476 8.15754C4.63476 7.66369 5.03015 7.26011 5.53218 7.26011H7.75856V5.03374C7.75856 4.5317 8.16216 4.13631 8.65598 4.13631C9.14983 4.13631 9.55341 4.53171 9.55341 5.03374V7.26011H11.788C12.2818 7.26011 12.6854 7.66371 12.6854 8.15754Z" fill="#8B92DF"/>
</svg>
