<svg width="24" height="24" viewBox="0 0 24 24" fill="none" xmlns="http://www.w3.org/2000/svg">
<path d="M16.1302 5.53857H7.86971C7.86971 5.53857 2.08691 10.2875 2.08691 15.8293C2.08691 18.9946 4.57365 20.5783 6.21716 20.5783H17.7828C19.433 20.5783 21.913 18.9946 21.913 15.8293C21.913 10.2875 16.1302 5.53857 16.1302 5.53857ZM12.8251 16.5399V17.8073H11.1748V16.5443C9.95857 16.3276 9.19446 15.6084 9.14021 14.5641H10.5712C10.6413 15.1122 11.2178 15.4654 12.052 15.4654C12.8206 15.4654 13.3654 15.1079 13.3654 14.5988C13.3654 14.1655 13.0127 13.9185 12.1446 13.7322L11.2245 13.5437C9.93596 13.2859 9.30298 12.6425 9.30298 11.609C9.30298 10.5756 10.0219 9.83036 11.1658 9.58555V8.3095H12.8161V9.58772C13.9328 9.82603 14.6766 10.5561 14.7128 11.5375H13.3315C13.2614 11.0024 12.7415 10.645 12.0271 10.645C11.3127 10.645 10.7973 10.9743 10.7973 11.4899C10.7973 11.908 11.1341 12.1398 11.9638 12.3175L12.8161 12.4908C14.238 12.7768 14.8507 13.3574 14.8507 14.4168C14.8507 15.5499 14.0911 16.3081 12.8251 16.5399Z" fill="#756F83"/>
<path d="M16.1302 0.787398H13.8469C13.6138 0.539537 13.3289 0.34137 13.0107 0.20573C12.6925 0.0700894 12.3482 0 12 0C11.6517 0 11.3074 0.0700894 10.9892 0.20573C10.6711 0.34137 10.3862 0.539537 10.153 0.787398H7.86972C7.7352 0.787957 7.60286 0.819937 7.48415 0.880566C7.36544 0.941196 7.26395 1.02865 7.18846 1.13535C7.11298 1.24205 7.06577 1.36477 7.05094 1.4929C7.03611 1.62102 7.0541 1.75068 7.10335 1.87064L7.86972 3.95262H16.1302L16.8966 1.87064C16.9458 1.75068 16.9638 1.62102 16.949 1.4929C16.9342 1.36477 16.887 1.24205 16.8115 1.13535C16.736 1.02865 16.6345 0.941196 16.5158 0.880566C16.3971 0.819937 16.2647 0.787957 16.1302 0.787398Z" fill="#756F83"/>
</svg>
