<svg width="62" height="62" viewBox="0 0 62 62" fill="none" xmlns="http://www.w3.org/2000/svg">
<circle cx="31" cy="31" r="31" fill="url(#paint0_linear_829_1004)"/>
<path d="M25 31C25 31.7956 24.6839 32.5587 24.1213 33.1213C23.5587 33.6839 22.7956 34 22 34C21.2044 34 20.4413 33.6839 19.8787 33.1213C19.3161 32.5587 19 31.7956 19 31C19 30.2044 19.3161 29.4413 19.8787 28.8787C20.4413 28.3161 21.2044 28 22 28C22.7956 28 23.5587 28.3161 24.1213 28.8787C24.6839 29.4413 25 30.2044 25 31ZM34 31C34 31.7956 33.6839 32.5587 33.1213 33.1213C32.5587 33.6839 31.7956 34 31 34C30.2044 34 29.4413 33.6839 28.8787 33.1213C28.3161 32.5587 28 31.7956 28 31C28 30.2044 28.3161 29.4413 28.8787 28.8787C29.4413 28.3161 30.2044 28 31 28C31.7956 28 32.5587 28.3161 33.1213 28.8787C33.6839 29.4413 34 30.2044 34 31ZM40 34C40.7956 34 41.5587 33.6839 42.1213 33.1213C42.6839 32.5587 43 31.7956 43 31C43 30.2044 42.6839 29.4413 42.1213 28.8787C41.5587 28.3161 40.7956 28 40 28C39.2044 28 38.4413 28.3161 37.8787 28.8787C37.3161 29.4413 37 30.2044 37 31C37 31.7956 37.3161 32.5587 37.8787 33.1213C38.4413 33.6839 39.2044 34 40 34Z" fill="white"/>
<defs>
<linearGradient id="paint0_linear_829_1004" x1="31" y1="0" x2="31" y2="62" gradientUnits="userSpaceOnUse">
<stop stop-color="#8B92DF"/>
<stop offset="1" stop-color="#6433AA"/>
</linearGradient>
</defs>
</svg>
