<svg width="23" height="18" viewBox="0 0 23 18" fill="none" xmlns="http://www.w3.org/2000/svg">
<g filter="url(#filter0_d_1356_2660)">
<path fill-rule="evenodd" clip-rule="evenodd" d="M12.9424 1.17588C12.9424 1.87903 12.3501 2.44905 11.6193 2.44905C10.9616 2.44905 10.4159 1.98719 10.3135 1.3821L2.48301 2.88613C0.99245 3.17242 0.0277486 4.57901 0.328287 6.02781L2.30868 15.5747C2.60922 17.0235 4.06119 17.9659 5.55175 17.6796L13.7063 16.1134C13.6029 15.9319 13.5441 15.7236 13.5441 15.502C13.5441 14.7989 14.1365 14.2289 14.8672 14.2289C15.598 14.2289 16.1903 14.7989 16.1903 15.502C16.1903 15.5478 16.1878 15.5931 16.1829 15.6377L20.5136 14.8059C22.0041 14.5196 22.9688 13.113 22.6683 11.6642L20.6879 2.11727C20.3874 0.668463 18.9354 -0.273939 17.4448 0.0123579L12.9075 0.883864C12.9303 0.977635 12.9424 1.0754 12.9424 1.17588Z" fill="white"/>
<path d="M17.4072 -0.184387C19.0003 -0.490279 20.56 0.516166 20.8838 2.07635L22.8643 11.6232C23.1884 13.1859 22.1468 14.6955 20.5518 15.0021L16.2207 15.8342C16.1583 15.8461 16.0935 15.8274 16.0469 15.7844C16.0004 15.7413 15.9774 15.6784 15.9844 15.6154C15.9884 15.5783 15.9902 15.5405 15.9902 15.5021C15.9902 14.9166 15.4948 14.4289 14.8672 14.4289C14.2396 14.4289 13.7441 14.9166 13.7441 15.5021C13.7442 15.6875 13.7932 15.8617 13.8799 16.0139C13.9118 16.0699 13.9147 16.1388 13.8877 16.1974C13.8607 16.2558 13.8073 16.2976 13.7441 16.3098L5.58984 17.8762C3.99664 18.1822 2.43704 17.1757 2.11328 15.6154L0.132813 6.06854C-0.191386 4.50567 0.849996 2.99605 2.44531 2.68964L10.2754 1.18573L10.3154 1.18182C10.3552 1.18221 10.3945 1.19492 10.4277 1.21796C10.4718 1.24864 10.5018 1.29585 10.5107 1.34882C10.5963 1.85371 11.0551 2.24912 11.6191 2.24921C12.2467 2.24921 12.7421 1.76144 12.7422 1.17596C12.7422 1.0916 12.732 1.00925 12.7129 0.930847C12.7001 0.877779 12.7097 0.82152 12.7393 0.775574C12.7689 0.729597 12.8164 0.697998 12.8701 0.687683L17.4072 -0.184387Z" stroke="black" stroke-width="0.4" stroke-linejoin="round"/>
</g>
<path fill-rule="evenodd" clip-rule="evenodd" d="M20.4199 2.1717C20.1494 0.867347 18.8418 0.0186495 17.4998 0.276401L13.2172 1.09898C13.2186 1.12496 13.2193 1.1511 13.2193 1.17738C13.2193 2.03107 12.5009 2.71816 11.621 2.71816C10.9282 2.71816 10.3362 2.29259 10.1152 1.69479L2.53801 3.15017C1.19695 3.40775 0.329272 4.67287 0.599667 5.97637L2.58006 15.5233C2.85063 16.8276 4.15823 17.6763 5.50017 17.4186L13.3284 15.915C13.2908 15.7839 13.2707 15.6459 13.2707 15.5035C13.2707 14.6498 13.9891 13.9627 14.8689 13.9627C15.6828 13.9627 16.3584 14.5506 16.4553 15.3144L20.462 14.5448C21.803 14.2872 22.6707 13.0221 22.4003 11.7186L20.4199 2.1717ZM17.3933 -0.248698C19.0324 -0.563539 20.6288 0.472567 20.9593 2.06583L22.9397 11.6127C23.2703 13.2069 22.2086 14.7549 20.5686 15.0699L16.2379 15.9017C16.1521 15.9182 16.0634 15.894 15.9989 15.8366C15.9344 15.7791 15.9018 15.6953 15.9111 15.6107C15.915 15.5756 15.917 15.5398 15.917 15.5035C15.917 14.9509 15.4506 14.498 14.8689 14.498C14.2873 14.498 13.8209 14.9509 13.8209 15.5035C13.8209 15.6784 13.8672 15.8422 13.9486 15.9851C13.9913 16.0599 13.9946 16.15 13.9575 16.2276C13.9205 16.3052 13.8476 16.3608 13.7613 16.3774L5.60675 17.9437C3.96758 18.2585 2.37123 17.2224 2.04073 15.6291L0.0603392 6.08225C-0.270342 4.48813 0.791381 2.94008 2.43144 2.62507L10.2619 1.12105C10.335 1.10701 10.4108 1.1224 10.472 1.16368C10.5332 1.20497 10.5745 1.26863 10.5866 1.34012C10.6672 1.81592 11.098 2.18293 11.621 2.18293C12.2027 2.18293 12.6691 1.72998 12.6691 1.17738C12.6691 1.09786 12.6595 1.02082 12.6415 0.947137C12.6243 0.876361 12.6374 0.801798 12.6778 0.740615C12.7182 0.679432 12.7825 0.636899 12.8559 0.622809L17.3933 -0.248698Z" fill="black"/>
<path d="M15.3546 12.5774C14.592 12.7314 14.1933 12.7269 14.1585 12.5638L12.4674 4.63942C12.4082 4.36223 12.5086 4.1974 12.7684 4.14493L14.9808 3.69811C16.2212 3.44762 17.1668 3.51602 17.8176 3.90333C18.4769 4.28893 18.9074 4.9546 19.1092 5.90031C19.2763 6.68297 19.1696 7.45287 18.7892 8.21002C18.599 8.5886 18.2733 8.92649 17.8122 9.22371C17.3512 9.52092 16.7854 9.73723 16.1149 9.87263L16.5821 12.0616C16.603 12.1595 16.4585 12.2609 16.1487 12.366C15.8456 12.4612 15.5809 12.5317 15.3546 12.5774ZM15.2589 5.86151L15.6713 7.79369L15.8347 7.76069C16.128 7.70145 16.3561 7.56184 16.519 7.34187C16.6818 7.12189 16.7285 6.84884 16.6589 6.52273C16.5893 6.19663 16.4685 5.97866 16.2964 5.86884C16.1327 5.75732 15.8749 5.73711 15.5229 5.80819L15.2589 5.86151Z" fill="black"/>
<path d="M8.07981 5.43569C8.12819 5.1708 8.62588 4.94273 9.57289 4.75148C9.81592 4.7024 10.1178 4.66269 10.4785 4.63237C10.8458 4.5922 11.0329 4.58843 11.0399 4.62104L9.80581 9.28388L12.8821 12.8849C12.916 12.9206 12.7445 12.9977 12.3677 13.1163C11.9891 13.2268 11.6657 13.3091 11.3976 13.3633C10.3332 13.5782 9.7212 13.5572 9.56148 13.3004L8.1202 11.155L7.77949 13.7368C7.7444 13.982 7.2324 14.2044 6.24349 14.4042C6.00045 14.4532 5.69527 14.4979 5.32794 14.538C4.96062 14.5782 4.78763 14.5664 4.80897 14.5025L5.86707 9.87523L2.96936 6.25092C2.93552 6.21523 3.0995 6.14385 3.46128 6.03677C3.82971 5.91984 4.14383 5.83515 4.40363 5.78268C5.45958 5.56942 6.06916 5.59939 6.23236 5.87258L7.53819 7.75188L8.07981 5.43569Z" fill="black"/>
<defs>
<filter id="filter0_d_1356_2660" x="-0.126709" y="-0.438782" width="23.25" height="19.5696" filterUnits="userSpaceOnUse" color-interpolation-filters="sRGB">
<feFlood flood-opacity="0" result="BackgroundImageFix"/>
<feColorMatrix in="SourceAlpha" type="matrix" values="0 0 0 0 0 0 0 0 0 0 0 0 0 0 0 0 0 0 127 0" result="hardAlpha"/>
<feOffset dy="1"/>
<feComposite in2="hardAlpha" operator="out"/>
<feColorMatrix type="matrix" values="0 0 0 0 0 0 0 0 0 0 0 0 0 0 0 0 0 0 1 0"/>
<feBlend mode="normal" in2="BackgroundImageFix" result="effect1_dropShadow_1356_2660"/>
<feBlend mode="normal" in="SourceGraphic" in2="effect1_dropShadow_1356_2660" result="shape"/>
</filter>
</defs>
</svg>
