<svg width="48" height="48" viewBox="0 0 48 48" fill="none" xmlns="http://www.w3.org/2000/svg">
<rect x="0.657895" y="0.657895" width="46.6842" height="46.6842" rx="23.3421" stroke="#2B2B2B" stroke-width="1.31579"/>
<path d="M20.8421 29.0526C18.5474 29.0526 16.6053 28.2579 15.0158 26.6684C13.4263 25.0789 12.6316 23.1368 12.6316 20.8421C12.6316 18.5474 13.4263 16.6053 15.0158 15.0158C16.6053 13.4263 18.5474 12.6316 20.8421 12.6316C23.1369 12.6316 25.079 13.4263 26.6684 15.0158C28.2579 16.6053 29.0526 18.5474 29.0526 20.8421C29.0526 21.7684 28.9053 22.6421 28.6105 23.4632C28.3158 24.2842 27.9158 25.0105 27.4105 25.6421L34.4842 32.7158C34.7158 32.9474 34.8316 33.2421 34.8316 33.6C34.8316 33.9579 34.7158 34.2526 34.4842 34.4842C34.2526 34.7158 33.9579 34.8316 33.6 34.8316C33.2421 34.8316 32.9474 34.7158 32.7158 34.4842L25.6421 27.4105C25.0105 27.9158 24.2842 28.3158 23.4632 28.6105C22.6421 28.9053 21.7684 29.0526 20.8421 29.0526ZM20.8421 26.5263C22.4211 26.5263 23.7632 25.9737 24.8684 24.8684C25.9737 23.7632 26.5263 22.4211 26.5263 20.8421C26.5263 19.2632 25.9737 17.9211 24.8684 16.8158C23.7632 15.7105 22.4211 15.1579 20.8421 15.1579C19.2632 15.1579 17.9211 15.7105 16.8158 16.8158C15.7105 17.9211 15.1579 19.2632 15.1579 20.8421C15.1579 22.4211 15.7105 23.7632 16.8158 24.8684C17.9211 25.9737 19.2632 26.5263 20.8421 26.5263Z" fill="#A09CAB"/>
</svg>
